<svg width="20" height="21" viewBox="0 0 20 21" fill="none" xmlns="http://www.w3.org/2000/svg">
<path d="M19.6789 10.015L17.3333 7.72635V4.36829C17.3333 4.10323 17.2282 3.84903 17.041 3.6616C16.8538 3.47417 16.5999 3.36887 16.3352 3.36887H13.0314L10.6958 1.02024C10.603 0.926562 10.4926 0.852211 10.3709 0.801472C10.2493 0.750732 10.1188 0.724609 9.98708 0.724609C9.85532 0.724609 9.72486 0.750732 9.60323 0.801472C9.4816 0.852211 9.3712 0.926562 9.27841 1.02024L6.99269 3.36887H3.63898C3.37426 3.36887 3.12038 3.47417 2.9332 3.6616C2.74601 3.84903 2.64085 4.10323 2.64085 4.36829V7.72635L0.295245 10.015C0.201692 10.1079 0.127437 10.2185 0.0767631 10.3403C0.0260894 10.462 0 10.5927 0 10.7246C0 10.8565 0.0260894 10.9872 0.0767631 11.109C0.127437 11.2308 0.201692 11.3413 0.295245 11.4342L2.64085 13.7728V17.0809C2.64085 17.346 2.74601 17.6002 2.9332 17.7876C3.12038 17.975 3.37426 18.0803 3.63898 18.0803H6.99269L9.32832 20.429C9.42111 20.5227 9.5315 20.597 9.65313 20.6477C9.77477 20.6985 9.90523 20.7246 10.037 20.7246C10.1688 20.7246 10.2992 20.6985 10.4208 20.6477C10.5425 20.597 10.6529 20.5227 10.7457 20.429L13.0813 18.0803H16.3851C16.6498 18.0803 16.9037 17.975 17.0909 17.7876C17.2781 17.6002 17.3832 17.346 17.3832 17.0809V13.7728L19.7288 11.4342C19.8192 11.338 19.8896 11.2249 19.9361 11.1013C19.9825 10.9777 20.004 10.8461 19.9994 10.7142C19.9947 10.5822 19.964 10.4525 19.909 10.3325C19.854 10.2125 19.7758 10.1046 19.6789 10.015ZM15.6365 12.6535C15.5422 12.7461 15.4672 12.8564 15.4158 12.9782C15.3644 13.1 15.3376 13.2308 15.3371 13.3631V16.0815H12.6221C12.4901 16.0821 12.3594 16.1088 12.2378 16.1603C12.1162 16.2118 12.0059 16.2869 11.9135 16.3813L9.98708 18.3102L8.06069 16.3813C7.96825 16.2869 7.85801 16.2118 7.73637 16.1603C7.61472 16.1088 7.48408 16.0821 7.35202 16.0815H4.63711V13.3631C4.63656 13.2308 4.60981 13.1 4.55841 12.9782C4.50701 12.8564 4.43198 12.7461 4.33767 12.6535L2.41128 10.7246L4.33767 8.79573C4.43198 8.70317 4.50701 8.59279 4.55841 8.47098C4.60981 8.34918 4.63656 8.21837 4.63711 8.08614V5.36772H7.35202C7.48408 5.36717 7.61472 5.34038 7.73637 5.28892C7.85801 5.23745 7.96825 5.16232 8.06069 5.06789L9.98708 3.13901L11.9135 5.06789C12.0059 5.16232 12.1162 5.23745 12.2378 5.28892C12.3594 5.34038 12.4901 5.36717 12.6221 5.36772H15.3371V8.08614C15.3376 8.21837 15.3644 8.34918 15.4158 8.47098C15.4672 8.59279 15.5422 8.70317 15.6365 8.79573L17.5629 10.7246L15.6365 12.6535Z" fill="black"/>
<path d="M10.5545 13.3636V12.9034C10.5545 12.5653 10.6255 12.2543 10.7675 11.9702C10.9124 11.6861 11.1227 11.4574 11.3982 11.2841C11.6738 11.1108 12.0076 11.0241 12.3997 11.0241C12.8031 11.0241 13.1411 11.1108 13.4139 11.2841C13.6866 11.4545 13.8925 11.6818 14.0318 11.9659C14.1738 12.25 14.2448 12.5625 14.2448 12.9034V13.3636C14.2448 13.7017 14.1738 14.0128 14.0318 14.2969C13.8897 14.581 13.6809 14.8097 13.4053 14.983C13.1326 15.1563 12.7974 15.2429 12.3997 15.2429C12.0019 15.2429 11.6653 15.1563 11.3897 14.983C11.1141 14.8097 10.9053 14.581 10.7633 14.2969C10.6241 14.0128 10.5545 13.7017 10.5545 13.3636ZM11.6667 12.9034V13.3636C11.6667 13.5881 11.7207 13.794 11.8286 13.9815C11.9366 14.169 12.1269 14.2628 12.3997 14.2628C12.6752 14.2628 12.8641 14.1705 12.9664 13.9858C13.0715 13.7983 13.1241 13.5909 13.1241 13.3636V12.9034C13.1241 12.6761 13.0744 12.4688 12.9749 12.2812C12.8755 12.0909 12.6837 11.9957 12.3997 11.9957C12.1326 11.9957 11.9437 12.0909 11.8329 12.2812C11.7221 12.4688 11.6667 12.6761 11.6667 12.9034ZM6.1184 8.36932V7.90909C6.1184 7.56818 6.19084 7.25568 6.33573 6.97159C6.48062 6.6875 6.69084 6.46023 6.96641 6.28977C7.24198 6.11648 7.57579 6.02983 7.96783 6.02983C8.3684 6.02983 8.70505 6.11648 8.97778 6.28977C9.25334 6.46023 9.46073 6.6875 9.59993 6.97159C9.73914 7.25568 9.80874 7.56818 9.80874 7.90909V8.36932C9.80874 8.71023 9.73772 9.02273 9.59567 9.30682C9.45647 9.58807 9.24908 9.81392 8.97351 9.98438C8.69795 10.1548 8.36272 10.2401 7.96783 10.2401C7.56726 10.2401 7.2292 10.1548 6.95363 9.98438C6.6809 9.81392 6.47351 9.58665 6.33147 9.30256C6.18942 9.01847 6.1184 8.70739 6.1184 8.36932ZM7.23914 7.90909V8.36932C7.23914 8.59659 7.2917 8.80398 7.39681 8.99148C7.50476 9.17614 7.69511 9.26847 7.96783 9.26847C8.24056 9.26847 8.42806 9.17614 8.53033 8.99148C8.63545 8.80398 8.688 8.59659 8.688 8.36932V7.90909C8.688 7.68182 8.63829 7.47443 8.53886 7.28693C8.43942 7.09659 8.24908 7.00142 7.96783 7.00142C7.69795 7.00142 7.50903 7.09659 7.40107 7.28693C7.29312 7.47727 7.23914 7.68466 7.23914 7.90909ZM6.6042 15L12.6042 6.27273H13.6695L7.66954 15H6.6042Z" fill="black"/>
</svg>
