<svg width="40" height="40" viewBox="0 0 40 40" fill="none" xmlns="http://www.w3.org/2000/svg">
<path d="M8.18182 12.7273H9.09091V13.6364C9.09091 14.1186 9.28247 14.581 9.62344 14.922C9.96442 15.263 10.4269 15.4545 10.9091 15.4545C11.3913 15.4545 11.8538 15.263 12.1947 14.922C12.5357 14.581 12.7273 14.1186 12.7273 13.6364V12.7273H13.6364C14.1186 12.7273 14.581 12.5357 14.922 12.1947C15.263 11.8538 15.4545 11.3913 15.4545 10.9091C15.4545 10.4269 15.263 9.96442 14.922 9.62344C14.581 9.28247 14.1186 9.09091 13.6364 9.09091H12.7273V8.18182C12.7273 7.69961 12.5357 7.23715 12.1947 6.89617C11.8538 6.55519 11.3913 6.36364 10.9091 6.36364C10.4269 6.36364 9.96442 6.55519 9.62344 6.89617C9.28247 7.23715 9.09091 7.69961 9.09091 8.18182V9.09091H8.18182C7.69961 9.09091 7.23715 9.28247 6.89617 9.62344C6.55519 9.96442 6.36364 10.4269 6.36364 10.9091C6.36364 11.3913 6.55519 11.8538 6.89617 12.1947C7.23715 12.5357 7.69961 12.7273 8.18182 12.7273ZM7.05455 32.9455C7.39521 33.2841 7.85603 33.4742 8.33636 33.4742C8.8167 33.4742 9.27752 33.2841 9.61818 32.9455L10.9091 31.6545L12.2 32.9455C12.5407 33.2841 13.0015 33.4742 13.4818 33.4742C13.9622 33.4742 14.423 33.2841 14.7636 32.9455C15.1023 32.6048 15.2923 32.144 15.2923 31.6636C15.2923 31.1833 15.1023 30.7225 14.7636 30.3818L13.4727 29.0909L14.7636 27.8C15.0615 27.4522 15.2172 27.0048 15.1995 26.5472C15.1818 26.0896 14.9921 25.6555 14.6683 25.3317C14.3445 25.0079 13.9104 24.8182 13.4528 24.8005C12.9952 24.7829 12.5478 24.9385 12.2 25.2364L10.9091 26.5273L9.61818 25.2364C9.27036 24.9385 8.82295 24.7829 8.36536 24.8005C7.90777 24.8182 7.47369 25.0079 7.14989 25.3317C6.82608 25.6555 6.63638 26.0896 6.61871 26.5472C6.60103 27.0048 6.75668 27.4522 7.05455 27.8L8.34546 29.0909L7.05455 30.3818C6.71591 30.7225 6.52583 31.1833 6.52583 31.6636C6.52583 32.144 6.71591 32.6048 7.05455 32.9455ZM34.5455 0H5.45455C4.00791 0 2.62053 0.574674 1.5976 1.5976C0.574674 2.62053 0 4.00791 0 5.45455V34.5455C0 35.9921 0.574674 37.3795 1.5976 38.4024C2.62053 39.4253 4.00791 40 5.45455 40H34.5455C35.9921 40 37.3795 39.4253 38.4024 38.4024C39.4253 37.3795 40 35.9921 40 34.5455V5.45455C40 4.00791 39.4253 2.62053 38.4024 1.5976C37.3795 0.574674 35.9921 0 34.5455 0ZM18.1818 36.3636H5.45455C4.97233 36.3636 4.50987 36.1721 4.1689 35.8311C3.82792 35.4901 3.63636 35.0277 3.63636 34.5455V21.8182H18.1818V36.3636ZM18.1818 18.1818H3.63636V5.45455C3.63636 4.97233 3.82792 4.50987 4.1689 4.1689C4.50987 3.82792 4.97233 3.63636 5.45455 3.63636H18.1818V18.1818ZM36.3636 34.5455C36.3636 35.0277 36.1721 35.4901 35.8311 35.8311C35.4901 36.1721 35.0277 36.3636 34.5455 36.3636H21.8182V21.8182H36.3636V34.5455ZM36.3636 18.1818H21.8182V3.63636H34.5455C35.0277 3.63636 35.4901 3.82792 35.8311 4.1689C36.1721 4.50987 36.3636 4.97233 36.3636 5.45455V18.1818ZM26.3636 28.1818H31.8182C32.3004 28.1818 32.7629 27.9903 33.1038 27.6493C33.4448 27.3083 33.6364 26.8458 33.6364 26.3636C33.6364 25.8814 33.4448 25.419 33.1038 25.078C32.7629 24.737 32.3004 24.5455 31.8182 24.5455H26.3636C25.8814 24.5455 25.419 24.737 25.078 25.078C24.737 25.419 24.5455 25.8814 24.5455 26.3636C24.5455 26.8458 24.737 27.3083 25.078 27.6493C25.419 27.9903 25.8814 28.1818 26.3636 28.1818ZM31.8182 9.09091H26.3636C25.8814 9.09091 25.419 9.28247 25.078 9.62344C24.737 9.96442 24.5455 10.4269 24.5455 10.9091C24.5455 11.3913 24.737 11.8538 25.078 12.1947C25.419 12.5357 25.8814 12.7273 26.3636 12.7273H31.8182C32.3004 12.7273 32.7629 12.5357 33.1038 12.1947C33.4448 11.8538 33.6364 11.3913 33.6364 10.9091C33.6364 10.4269 33.4448 9.96442 33.1038 9.62344C32.7629 9.28247 32.3004 9.09091 31.8182 9.09091ZM26.3636 33.6364H31.8182C32.3004 33.6364 32.7629 33.4448 33.1038 33.1038C33.4448 32.7629 33.6364 32.3004 33.6364 31.8182C33.6364 31.336 33.4448 30.8735 33.1038 30.5325C32.7629 30.1916 32.3004 30 31.8182 30H26.3636C25.8814 30 25.419 30.1916 25.078 30.5325C24.737 30.8735 24.5455 31.336 24.5455 31.8182C24.5455 32.3004 24.737 32.7629 25.078 33.1038C25.419 33.4448 25.8814 33.6364 26.3636 33.6364Z" fill="black"/>
</svg>
