<svg width="40" height="40" viewBox="0 0 40 40" fill="none" xmlns="http://www.w3.org/2000/svg">
<path d="M20 18C19.6044 18 19.2178 18.1173 18.8889 18.3371C18.56 18.5568 18.3036 18.8692 18.1522 19.2346C18.0009 19.6001 17.9613 20.0022 18.0384 20.3902C18.1156 20.7781 18.3061 21.1345 18.5858 21.4142C18.8655 21.6939 19.2219 21.8844 19.6098 21.9616C19.9978 22.0387 20.3999 21.9991 20.7654 21.8478C21.1308 21.6964 21.4432 21.44 21.6629 21.1111C21.8827 20.7822 22 20.3956 22 20C22 19.4696 21.7893 18.9609 21.4142 18.5858C21.0391 18.2107 20.5304 18 20 18ZM20 0C16.0444 0 12.1776 1.17298 8.8886 3.37061C5.59962 5.56823 3.03617 8.69181 1.52242 12.3463C0.00866568 16.0008 -0.387401 20.0222 0.384303 23.9018C1.15601 27.7814 3.06082 31.3451 5.85787 34.1421C8.65492 36.9392 12.2186 38.844 16.0982 39.6157C19.9778 40.3874 23.9992 39.9913 27.6537 38.4776C31.3082 36.9638 34.4318 34.4004 36.6294 31.1114C38.827 27.8224 40 23.9556 40 20C40 17.3736 39.4827 14.7728 38.4776 12.3463C37.4725 9.91982 35.9993 7.71503 34.1421 5.85786C32.285 4.00069 30.0802 2.5275 27.6537 1.52241C25.2272 0.517315 22.6264 0 20 0ZM22 35.86V30C22 29.4696 21.7893 28.9608 21.4142 28.5858C21.0391 28.2107 20.5304 28 20 28C19.4696 28 18.9609 28.2107 18.5858 28.5858C18.2107 28.9608 18 29.4696 18 30V35.86C14.48 35.4136 11.2082 33.8098 8.69918 31.3008C6.1902 28.7918 4.58639 25.52 4.14001 22H10C10.5304 22 11.0391 21.7893 11.4142 21.4142C11.7893 21.0391 12 20.5304 12 20C12 19.4696 11.7893 18.9609 11.4142 18.5858C11.0391 18.2107 10.5304 18 10 18H4.14001C4.58639 14.48 6.1902 11.2081 8.69918 8.69917C11.2082 6.19019 14.48 4.58638 18 4.14V10C18 10.5304 18.2107 11.0391 18.5858 11.4142C18.9609 11.7893 19.4696 12 20 12C20.5304 12 21.0391 11.7893 21.4142 11.4142C21.7893 11.0391 22 10.5304 22 10V4.14C25.52 4.58638 28.7919 6.19019 31.3008 8.69917C33.8098 11.2081 35.4136 14.48 35.86 18H30C29.4696 18 28.9609 18.2107 28.5858 18.5858C28.2107 18.9609 28 19.4696 28 20C28 20.5304 28.2107 21.0391 28.5858 21.4142C28.9609 21.7893 29.4696 22 30 22H35.86C35.4136 25.52 33.8098 28.7918 31.3008 31.3008C28.7919 33.8098 25.52 35.4136 22 35.86Z" fill="black"/>
</svg>
