<svg width="40" height="40" viewBox="0 0 40 40" fill="none" xmlns="http://www.w3.org/2000/svg">
<path d="M2.35294 20C1.7289 20 1.13042 20.2107 0.689161 20.5858C0.247899 20.9609 0 21.4696 0 22V38C0 38.5304 0.247899 39.0391 0.689161 39.4142C1.13042 39.7893 1.7289 40 2.35294 40C2.97698 40 3.57546 39.7893 4.01672 39.4142C4.45798 39.0391 4.70588 38.5304 4.70588 38V22C4.70588 21.4696 4.45798 20.9609 4.01672 20.5858C3.57546 20.2107 2.97698 20 2.35294 20ZM14.1176 0C13.4936 0 12.8951 0.210714 12.4539 0.585786C12.0126 0.960859 11.7647 1.46957 11.7647 2V38C11.7647 38.5304 12.0126 39.0391 12.4539 39.4142C12.8951 39.7893 13.4936 40 14.1176 40C14.7417 40 15.3402 39.7893 15.7814 39.4142C16.2227 39.0391 16.4706 38.5304 16.4706 38V2C16.4706 1.46957 16.2227 0.960859 15.7814 0.585786C15.3402 0.210714 14.7417 0 14.1176 0ZM37.6471 28C37.023 28 36.4245 28.2107 35.9833 28.5858C35.542 28.9609 35.2941 29.4696 35.2941 30V38C35.2941 38.5304 35.542 39.0391 35.9833 39.4142C36.4245 39.7893 37.023 40 37.6471 40C38.2711 40 38.8696 39.7893 39.3108 39.4142C39.7521 39.0391 40 38.5304 40 38V30C40 29.4696 39.7521 28.9609 39.3108 28.5858C38.8696 28.2107 38.2711 28 37.6471 28ZM25.8824 12C25.2583 12 24.6598 12.2107 24.2186 12.5858C23.7773 12.9609 23.5294 13.4696 23.5294 14V38C23.5294 38.5304 23.7773 39.0391 24.2186 39.4142C24.6598 39.7893 25.2583 40 25.8824 40C26.5064 40 27.1049 39.7893 27.5461 39.4142C27.9874 39.0391 28.2353 38.5304 28.2353 38V14C28.2353 13.4696 27.9874 12.9609 27.5461 12.5858C27.1049 12.2107 26.5064 12 25.8824 12Z" fill="black"/>
</svg>
