<svg width="20" height="20" viewBox="0 0 20 20" fill="none" xmlns="http://www.w3.org/2000/svg">
<path d="M18.75 5H15V4C15 2.93913 14.4732 1.92172 13.5355 1.17157C12.5979 0.421427 11.3261 0 10 0C8.67392 0 7.40215 0.421427 6.46447 1.17157C5.52678 1.92172 5 2.93913 5 4V5H1.25C0.918479 5 0.600537 5.10536 0.366117 5.29289C0.131696 5.48043 0 5.73478 0 6V17C0 17.7956 0.395088 18.5587 1.09835 19.1213C1.80161 19.6839 2.75544 20 3.75 20H16.25C17.2446 20 18.1984 19.6839 18.9017 19.1213C19.6049 18.5587 20 17.7956 20 17V6C20 5.73478 19.8683 5.48043 19.6339 5.29289C19.3995 5.10536 19.0815 5 18.75 5ZM7.5 4C7.5 3.46957 7.76339 2.96086 8.23223 2.58579C8.70107 2.21071 9.33696 2 10 2C10.663 2 11.2989 2.21071 11.7678 2.58579C12.2366 2.96086 12.5 3.46957 12.5 4V5H7.5V4ZM17.5 17C17.5 17.2652 17.3683 17.5196 17.1339 17.7071C16.8995 17.8946 16.5815 18 16.25 18H3.75C3.41848 18 3.10054 17.8946 2.86612 17.7071C2.6317 17.5196 2.5 17.2652 2.5 17V7H5V8C5 8.26522 5.1317 8.51957 5.36612 8.70711C5.60054 8.89464 5.91848 9 6.25 9C6.58152 9 6.89946 8.89464 7.13388 8.70711C7.3683 8.51957 7.5 8.26522 7.5 8V7H12.5V8C12.5 8.26522 12.6317 8.51957 12.8661 8.70711C13.1005 8.89464 13.4185 9 13.75 9C14.0815 9 14.3995 8.89464 14.6339 8.70711C14.8683 8.51957 15 8.26522 15 8V7H17.5V17Z" fill="white"/>
</svg>
