<svg width="26" height="28" viewBox="0 0 26 28" fill="none" xmlns="http://www.w3.org/2000/svg">
<path d="M24.3281 7.06201H23.9375V4.53076C23.9375 2.16826 19.0938 0.312012 13 0.312012C6.90625 0.312012 2.0625 2.16826 2.0625 4.53076V7.06201H1.67188C1.0249 7.06201 0.5 7.62838 0.5 8.32764V12.5464C0.5 13.2451 1.0249 13.812 1.67188 13.812H2.0625V22.2495C2.0625 23.1813 2.76221 23.937 3.625 23.937V25.6245C3.625 26.5563 4.32471 27.312 5.1875 27.312H6.75C7.61279 27.312 8.3125 26.5563 8.3125 25.6245V23.937H17.6875V25.6245C17.6875 26.5563 18.3872 27.312 19.25 27.312H20.8125C21.6753 27.312 22.375 26.5563 22.375 25.6245V23.937H22.6875C23.4688 23.937 23.9375 23.262 23.9375 22.587V13.812H24.3281C24.9751 13.812 25.5 13.2451 25.5 12.5464V8.32764C25.5 7.62838 24.9751 7.06201 24.3281 7.06201ZM5.96875 21.4058C5.10596 21.4058 4.40625 20.6501 4.40625 19.7183C4.40625 18.7864 5.10596 18.0308 5.96875 18.0308C6.83154 18.0308 7.53125 18.7864 7.53125 19.7183C7.53125 20.6501 6.83154 21.4058 5.96875 21.4058ZM6.75 15.4995C5.88721 15.4995 5.1875 14.7438 5.1875 13.812V7.06201C5.1875 6.1302 5.88721 5.37451 6.75 5.37451H19.25C20.1128 5.37451 20.8125 6.1302 20.8125 7.06201V13.812C20.8125 14.7438 20.1128 15.4995 19.25 15.4995H6.75ZM20.0312 21.4058C19.1685 21.4058 18.4688 20.6501 18.4688 19.7183C18.4688 18.7864 19.1685 18.0308 20.0312 18.0308C20.894 18.0308 21.5938 18.7864 21.5938 19.7183C21.5938 20.6501 20.894 21.4058 20.0312 21.4058Z" fill="#AB0101"/>
</svg>
