<svg width="26" height="27" viewBox="0 0 26 27" fill="none" xmlns="http://www.w3.org/2000/svg">
<path d="M24.3281 6.75H23.9375V4.21875C23.9375 1.85625 19.0938 0 13 0C6.90625 0 2.0625 1.85625 2.0625 4.21875V6.75H1.67188C1.0249 6.75 0.5 7.31637 0.5 8.01562V12.2344C0.5 12.9331 1.0249 13.5 1.67188 13.5H2.0625V21.9375C2.0625 22.8693 2.76221 23.625 3.625 23.625V25.3125C3.625 26.2443 4.32471 27 5.1875 27H6.75C7.61279 27 8.3125 26.2443 8.3125 25.3125V23.625H17.6875V25.3125C17.6875 26.2443 18.3872 27 19.25 27H20.8125C21.6753 27 22.375 26.2443 22.375 25.3125V23.625H22.6875C23.4688 23.625 23.9375 22.95 23.9375 22.275V13.5H24.3281C24.9751 13.5 25.5 12.9331 25.5 12.2344V8.01562C25.5 7.31637 24.9751 6.75 24.3281 6.75ZM5.96875 21.0938C5.10596 21.0938 4.40625 20.3381 4.40625 19.4062C4.40625 18.4744 5.10596 17.7188 5.96875 17.7188C6.83154 17.7188 7.53125 18.4744 7.53125 19.4062C7.53125 20.3381 6.83154 21.0938 5.96875 21.0938ZM6.75 15.1875C5.88721 15.1875 5.1875 14.4318 5.1875 13.5V6.75C5.1875 5.81818 5.88721 5.0625 6.75 5.0625H19.25C20.1128 5.0625 20.8125 5.81818 20.8125 6.75V13.5C20.8125 14.4318 20.1128 15.1875 19.25 15.1875H6.75ZM20.0312 21.0938C19.1685 21.0938 18.4688 20.3381 18.4688 19.4062C18.4688 18.4744 19.1685 17.7188 20.0312 17.7188C20.894 17.7188 21.5938 18.4744 21.5938 19.4062C21.5938 20.3381 20.894 21.0938 20.0312 21.0938Z" fill="black"/>
</svg>
