<svg width="35" height="35" viewBox="0 0 35 35" fill="none" xmlns="http://www.w3.org/2000/svg">
<path d="M17.5 0C14.0388 0 10.6554 1.02636 7.77753 2.94928C4.89967 4.87221 2.65665 7.60533 1.33212 10.803C0.00758247 14.0007 -0.338976 17.5194 0.336265 20.9141C1.01151 24.3087 2.67822 27.4269 5.12564 29.8744C7.57306 32.3218 10.6913 33.9885 14.0859 34.6637C17.4806 35.339 20.9993 34.9924 24.197 33.6679C27.3947 32.3433 30.1278 30.1003 32.0507 27.2225C33.9736 24.3446 35 20.9612 35 17.5C35 15.2019 34.5474 12.9262 33.6679 10.803C32.7884 8.67984 31.4994 6.75065 29.8744 5.12563C28.2493 3.50061 26.3202 2.21157 24.197 1.33211C22.0738 0.452651 19.7981 0 17.5 0ZM17.5 31.5C14.7311 31.5 12.0243 30.6789 9.72202 29.1406C7.41973 27.6022 5.62532 25.4157 4.56569 22.8576C3.50607 20.2994 3.22882 17.4845 3.76901 14.7687C4.30921 12.053 5.64258 9.55844 7.60051 7.6005C9.55845 5.64257 12.053 4.3092 14.7687 3.76901C17.4845 3.22881 20.2994 3.50606 22.8576 4.56569C25.4157 5.62531 27.6022 7.41973 29.1406 9.72201C30.6789 12.0243 31.5 14.7311 31.5 17.5C31.5 21.213 30.025 24.774 27.3995 27.3995C24.774 30.025 21.213 31.5 17.5 31.5ZM24.5 15.75H19.25V10.5C19.25 10.0359 19.0656 9.59075 18.7374 9.26256C18.4093 8.93437 17.9641 8.75 17.5 8.75C17.0359 8.75 16.5908 8.93437 16.2626 9.26256C15.9344 9.59075 15.75 10.0359 15.75 10.5V15.75H10.5C10.0359 15.75 9.59076 15.9344 9.26257 16.2626C8.93438 16.5907 8.75001 17.0359 8.75001 17.5C8.75001 17.9641 8.93438 18.4092 9.26257 18.7374C9.59076 19.0656 10.0359 19.25 10.5 19.25H15.75V24.5C15.75 24.9641 15.9344 25.4092 16.2626 25.7374C16.5908 26.0656 17.0359 26.25 17.5 26.25C17.9641 26.25 18.4093 26.0656 18.7374 25.7374C19.0656 25.4092 19.25 24.9641 19.25 24.5V19.25H24.5C24.9641 19.25 25.4093 19.0656 25.7374 18.7374C26.0656 18.4092 26.25 17.9641 26.25 17.5C26.25 17.0359 26.0656 16.5907 25.7374 16.2626C25.4093 15.9344 24.9641 15.75 24.5 15.75Z" fill="#929292"/>
</svg>
