<svg width="20" height="21" viewBox="0 0 20 21" fill="none" xmlns="http://www.w3.org/2000/svg">
<path d="M19.6789 9.79041L17.3333 7.50174V4.14369C17.3333 3.87862 17.2282 3.62442 17.041 3.43699C16.8538 3.24956 16.5999 3.14426 16.3352 3.14426H13.0314L10.6958 0.795627C10.603 0.701953 10.4926 0.627602 10.3709 0.576862C10.2493 0.526123 10.1188 0.5 9.98708 0.5C9.85532 0.5 9.72486 0.526123 9.60323 0.576862C9.4816 0.627602 9.3712 0.701953 9.27841 0.795627L6.99269 3.14426H3.63898C3.37426 3.14426 3.12038 3.24956 2.9332 3.43699C2.74601 3.62442 2.64085 3.87862 2.64085 4.14369V7.50174L0.295245 9.79041C0.201692 9.88332 0.127437 9.99386 0.0767631 10.1156C0.0260894 10.2374 0 10.3681 0 10.5C0 10.6319 0.0260894 10.7626 0.0767631 10.8844C0.127437 11.0061 0.201692 11.1167 0.295245 11.2096L2.64085 13.5482V16.8563C2.64085 17.1214 2.74601 17.3756 2.9332 17.563C3.12038 17.7504 3.37426 17.8557 3.63898 17.8557H6.99269L9.32832 20.2044C9.42111 20.298 9.5315 20.3724 9.65313 20.4231C9.77477 20.4739 9.90523 20.5 10.037 20.5C10.1688 20.5 10.2992 20.4739 10.4208 20.4231C10.5425 20.3724 10.6529 20.298 10.7457 20.2044L13.0813 17.8557H16.3851C16.6498 17.8557 16.9037 17.7504 17.0909 17.563C17.2781 17.3756 17.3832 17.1214 17.3832 16.8563V13.5482L19.7288 11.2096C19.8192 11.1134 19.8896 11.0003 19.9361 10.8767C19.9825 10.7531 20.004 10.6215 19.9994 10.4896C19.9947 10.3576 19.964 10.2279 19.909 10.1079C19.854 9.98788 19.7758 9.87998 19.6789 9.79041ZM15.6365 12.4289C15.5422 12.5214 15.4672 12.6318 15.4158 12.7536C15.3644 12.8754 15.3376 13.0062 15.3371 13.1385V15.8569H12.6221C12.4901 15.8574 12.3594 15.8842 12.2378 15.9357C12.1162 15.9872 12.0059 16.0623 11.9135 16.1567L9.98708 18.0856L8.06069 16.1567C7.96825 16.0623 7.85801 15.9872 7.73637 15.9357C7.61472 15.8842 7.48408 15.8574 7.35202 15.8569H4.63711V13.1385C4.63656 13.0062 4.60981 12.8754 4.55841 12.7536C4.50701 12.6318 4.43198 12.5214 4.33767 12.4289L2.41128 10.5L4.33767 8.57112C4.43198 8.47856 4.50701 8.36818 4.55841 8.24637C4.60981 8.12457 4.63656 7.99376 4.63711 7.86153V5.14311H7.35202C7.48408 5.14256 7.61472 5.11577 7.73637 5.06431C7.85801 5.01284 7.96825 4.93771 8.06069 4.84328L9.98708 2.9144L11.9135 4.84328C12.0059 4.93771 12.1162 5.01284 12.2378 5.06431C12.3594 5.11577 12.4901 5.14256 12.6221 5.14311H15.3371V7.86153C15.3376 7.99376 15.3644 8.12457 15.4158 8.24637C15.4672 8.36818 15.5422 8.47856 15.6365 8.57112L17.5629 10.5L15.6365 12.4289Z" fill="#AB0101"/>
<path d="M10.5545 13.139V12.6788C10.5545 12.3407 10.6255 12.0297 10.7675 11.7456C10.9124 11.4615 11.1227 11.2328 11.3982 11.0595C11.6738 10.8862 12.0076 10.7995 12.3997 10.7995C12.8031 10.7995 13.1411 10.8862 13.4139 11.0595C13.6866 11.2299 13.8925 11.4572 14.0318 11.7413C14.1738 12.0254 14.2448 12.3379 14.2448 12.6788V13.139C14.2448 13.4771 14.1738 13.7882 14.0318 14.0723C13.8897 14.3564 13.6809 14.585 13.4053 14.7583C13.1326 14.9316 12.7974 15.0183 12.3997 15.0183C12.0019 15.0183 11.6653 14.9316 11.3897 14.7583C11.1141 14.585 10.9053 14.3564 10.7633 14.0723C10.6241 13.7882 10.5545 13.4771 10.5545 13.139ZM11.6667 12.6788V13.139C11.6667 13.3635 11.7207 13.5694 11.8286 13.7569C11.9366 13.9444 12.1269 14.0382 12.3997 14.0382C12.6752 14.0382 12.8641 13.9458 12.9664 13.7612C13.0715 13.5737 13.1241 13.3663 13.1241 13.139V12.6788C13.1241 12.4515 13.0744 12.2441 12.9749 12.0566C12.8755 11.8663 12.6837 11.7711 12.3997 11.7711C12.1326 11.7711 11.9437 11.8663 11.8329 12.0566C11.7221 12.2441 11.6667 12.4515 11.6667 12.6788ZM6.1184 8.14471V7.68448C6.1184 7.34357 6.19084 7.03107 6.33573 6.74698C6.48062 6.46289 6.69084 6.23562 6.96641 6.06516C7.24198 5.89187 7.57579 5.80522 7.96783 5.80522C8.3684 5.80522 8.70505 5.89187 8.97778 6.06516C9.25334 6.23562 9.46073 6.46289 9.59993 6.74698C9.73914 7.03107 9.80874 7.34357 9.80874 7.68448V8.14471C9.80874 8.48562 9.73772 8.79812 9.59567 9.08221C9.45647 9.36346 9.24908 9.58931 8.97351 9.75977C8.69795 9.93022 8.36272 10.0154 7.96783 10.0154C7.56726 10.0154 7.2292 9.93022 6.95363 9.75977C6.6809 9.58931 6.47351 9.36204 6.33147 9.07795C6.18942 8.79386 6.1184 8.48278 6.1184 8.14471ZM7.23914 7.68448V8.14471C7.23914 8.37198 7.2917 8.57937 7.39681 8.76687C7.50476 8.95153 7.69511 9.04386 7.96783 9.04386C8.24056 9.04386 8.42806 8.95153 8.53033 8.76687C8.63545 8.57937 8.688 8.37198 8.688 8.14471V7.68448C8.688 7.45721 8.63829 7.24982 8.53886 7.06232C8.43942 6.87198 8.24908 6.77681 7.96783 6.77681C7.69795 6.77681 7.50903 6.87198 7.40107 7.06232C7.29312 7.25266 7.23914 7.46005 7.23914 7.68448ZM6.6042 14.7754L12.6042 6.04812H13.6695L7.66954 14.7754H6.6042Z" fill="#AB0101"/>
</svg>