<svg width="166" height="86" viewBox="0 0 166 86" fill="none" xmlns="http://www.w3.org/2000/svg">
<path d="M29.3006 76.8575L28.4537 78.6693L29.3006 76.8575ZM94.0245 62.6855L95.7686 63.6644L94.0245 62.6855ZM84.8221 6.36062L84.4798 8.33111L84.8221 6.36062ZM63.9632 20.1693L62.1114 19.4136L63.9632 20.1693ZM63.9632 44.8795L65.8337 44.1717L63.9632 44.8795ZM123.472 60.1418L124.534 61.8367L123.472 60.1418ZM146.172 28.5272L148.007 29.3217L146.172 28.5272ZM153.514 0.692608C152.791 -0.143283 151.529 -0.235567 150.693 0.486486L137.071 12.253C136.235 12.9751 136.143 14.238 136.865 15.0739C137.587 15.9098 138.85 16.0021 139.686 15.28L151.794 4.82091L162.253 16.929C162.975 17.7649 164.238 17.8572 165.074 17.1351C165.91 16.4131 166.002 15.1501 165.28 14.3142L153.514 0.692608ZM2 40.8823C0.105601 41.5236 0.105637 41.5237 0.105675 41.5238C0.10569 41.5238 0.10573 41.524 0.10576 41.5241C0.10582 41.5242 0.105887 41.5244 0.105961 41.5246C0.106109 41.5251 0.106286 41.5256 0.106491 41.5262C0.106902 41.5274 0.107426 41.529 0.108064 41.5308C0.109339 41.5346 0.11107 41.5397 0.113255 41.546C0.117625 41.5588 0.123815 41.5768 0.131821 41.5999C0.147832 41.6462 0.171114 41.7128 0.201652 41.799C0.262724 41.9712 0.352843 42.2213 0.471895 42.5412C0.709956 43.1807 1.06397 44.0998 1.53308 45.2335L5.22916 43.7041C4.78012 42.6189 4.44358 41.7448 4.22061 41.1458C4.10916 40.8463 4.02615 40.6159 3.97172 40.4623C3.94451 40.3856 3.92445 40.3281 3.91155 40.2909C3.90511 40.2723 3.90045 40.2587 3.89759 40.2504C3.89616 40.2462 3.89518 40.2433 3.89465 40.2417C3.89438 40.241 3.89423 40.2405 3.89419 40.2404C3.89417 40.2403 3.89417 40.2403 3.89421 40.2404C3.89423 40.2405 3.89425 40.2406 3.89428 40.2407C3.8943 40.2407 3.89433 40.2408 3.89434 40.2408C3.89437 40.2409 3.8944 40.241 2 40.8823ZM4.82433 52.3713C5.91883 54.5203 7.20481 56.8519 8.68109 59.226L12.0779 57.1137C10.6707 54.8508 9.43997 52.6201 8.38866 50.556L4.82433 52.3713ZM13.1963 65.7237C14.8146 67.797 16.5895 69.8126 18.5215 71.6678L21.292 68.7825C19.5191 67.0802 17.8705 65.2111 16.3495 63.2625L13.1963 65.7237ZM24.8582 76.6929C26.0126 77.4246 27.2111 78.0885 28.4537 78.6693L30.1475 75.0457C29.0703 74.5421 28.0209 73.9618 26.9998 73.3145L24.8582 76.6929ZM28.4537 78.6693C29.5993 79.2048 30.7515 79.7155 31.9089 80.1999L33.4531 76.51C32.3472 76.0472 31.2448 75.5586 30.1475 75.0457L28.4537 78.6693ZM39.0119 82.8126C41.4554 83.5862 43.9094 84.2323 46.3596 84.736L47.165 80.8179C44.8592 80.3439 42.5394 79.7337 40.2193 78.9991L39.0119 82.8126ZM53.9122 85.8238C56.4961 86.0306 59.0615 86.059 61.5901 85.8897L61.3229 81.8986C59.0037 82.0539 56.6347 82.0289 54.2313 81.8365L53.9122 85.8238ZM69.2286 84.7258C71.7423 84.1117 74.1941 83.266 76.5622 82.1691L74.8809 78.5396C72.758 79.523 70.5522 80.2848 68.2792 80.8401L69.2286 84.7258ZM83.2542 78.2071C85.2818 76.7135 87.2116 74.9913 89.0281 73.0286L86.0925 70.3116C84.4437 72.093 82.7019 73.6458 80.8818 74.9865L83.2542 78.2071ZM93.7689 66.9513C94.4602 65.9026 95.1271 64.8073 95.7686 63.6644L92.2805 61.7065C91.6842 62.7688 91.0667 63.7828 90.4292 64.7499L93.7689 66.9513ZM95.7686 63.6644C96.5646 62.2462 97.2881 60.9315 97.9448 59.6976L94.4138 57.8183C93.7753 59.018 93.0671 60.3052 92.2805 61.7065L95.7686 63.6644ZM101.814 51.329C102.918 48.2954 103.538 45.4594 103.882 42.1482L99.9037 41.7345C99.5897 44.7539 99.0359 47.266 98.0551 49.961L101.814 51.329ZM104.29 33.0229C104.303 31.631 104.307 30.1384 104.307 28.5272H100.307C100.307 30.1339 100.303 31.6115 100.29 32.9841L104.29 33.0229ZM104.307 28.5272C104.307 27.7141 104.104 26.1775 103.66 24.3293L99.7706 25.2651C100.183 26.9774 100.307 28.1664 100.307 28.5272H104.307ZM100.89 16.7871C99.7269 14.5063 98.1828 12.1728 96.1502 10.133L93.3167 12.9564C94.9924 14.638 96.3079 16.6065 97.327 18.6045L100.89 16.7871ZM89.202 5.51933C87.9489 5.024 86.6043 4.64026 85.1644 4.39013L84.4798 8.33111C85.6519 8.53472 86.7331 8.84458 87.7317 9.23928L89.202 5.51933ZM85.1644 4.39013C83.8552 4.1627 82.6353 3.97925 81.4961 3.84964L81.044 7.824C82.0838 7.94231 83.2229 8.11277 84.4798 8.33111L85.1644 4.39013ZM73.5757 4.21392C70.8097 5.05214 68.7817 6.79412 67.0175 9.38914L70.3255 11.638C71.7236 9.58143 73.0681 8.54738 74.7358 8.042L73.5757 4.21392ZM63.5249 16.0563C63.0686 17.0977 62.6 18.2163 62.1114 19.4136L65.8149 20.9249C66.2955 19.7474 66.7502 18.6622 67.1886 17.6618L63.5249 16.0563ZM62.1114 19.4136C61.6967 20.4301 61.3527 21.5335 61.072 22.6884L64.9589 23.6331C65.2017 22.6339 65.4885 21.7248 65.8149 20.9249L62.1114 19.4136ZM60.1259 29.252C59.9913 31.4156 60.0047 33.6407 60.158 35.8001L64.148 35.5169C64.007 33.53 63.9949 31.4826 64.1182 29.5004L60.1259 29.252ZM61.1154 42.3315C61.3865 43.4831 61.7113 44.5797 62.0927 45.5874L65.8337 44.1717C65.5245 43.3546 65.2476 42.4286 65.0089 41.4148L61.1154 42.3315ZM62.0927 45.5874C62.6613 47.09 63.2798 48.5203 63.9453 49.8797L67.5379 48.1208C66.9292 46.8776 66.3599 45.5621 65.8337 44.1717L62.0927 45.5874ZM68.9687 57.8097C71.056 60.3759 73.3762 62.5287 75.879 64.29L78.181 61.0188C75.9843 59.4729 73.9323 57.5731 72.0719 55.2857L68.9687 57.8097ZM84.3487 68.5816C87.3372 69.5938 90.4485 70.1881 93.6165 70.4062L93.8912 66.4156C91.0411 66.2194 88.2709 65.6868 85.632 64.793L84.3487 68.5816ZM102.977 70.012C106.006 69.5653 109.036 68.8212 112.017 67.8119L110.734 64.0232C107.967 64.9603 105.171 65.6453 102.393 66.0548L102.977 70.012ZM120.524 64.1452C121.884 63.4291 123.222 62.6585 124.534 61.8367L122.411 58.4468C121.183 59.2161 119.931 59.9369 118.66 60.6063L120.524 64.1452ZM124.534 61.8367C126.036 60.8957 127.441 59.8896 128.757 58.8261L126.244 55.7141C125.05 56.6787 123.776 57.5918 122.411 58.4468L124.534 61.8367ZM135.988 51.455C138.115 48.7507 139.94 45.8734 141.576 42.9087L138.074 40.9763C136.516 43.7997 134.807 46.4864 132.844 48.9819L135.988 51.455ZM146.009 33.8771C146.688 32.3616 147.351 30.8382 148.007 29.3217L144.336 27.7326C143.681 29.247 143.027 30.7506 142.359 32.2414L146.009 33.8771ZM148.007 29.3217C148.49 28.2058 148.932 27.1314 149.335 26.0871L145.605 24.6445C145.222 25.6351 144.801 26.6605 144.336 27.7326L148.007 29.3217ZM151.532 19.3947C152.142 17.1029 152.59 14.8523 152.943 12.4882L148.987 11.8974C148.653 14.1343 148.233 16.2372 147.666 18.3664L151.532 19.3947ZM153.724 5.57918C153.819 4.48061 153.907 3.33928 153.995 2.14575L150.005 1.85425C149.919 3.03643 149.832 4.15963 149.739 5.23591L153.724 5.57918Z" fill="#E99F9F"/>
</svg>
