<svg width="318" height="40" viewBox="0 0 318 40" fill="none" xmlns="http://www.w3.org/2000/svg">
<path d="M9.04 16.46C10.64 14.7107 12.0693 12.8547 13.328 10.892C14.608 8.92933 15.792 6.72133 16.88 4.268C17.4347 4.332 17.968 4.48133 18.48 4.716C18.992 4.95067 19.3973 5.21733 19.696 5.516C18.5227 6.924 17.456 8.204 16.496 9.356C15.5573 10.508 14.6933 11.596 13.904 12.62C13.1147 13.6227 12.3787 14.5933 11.696 15.532C11.0347 16.4493 10.384 17.3773 9.744 18.316C9.424 19.404 9.12533 20.5027 8.848 21.612C8.57067 22.7213 8.32533 23.788 8.112 24.812C7.89867 25.8147 7.728 26.7427 7.6 27.596C7.49333 28.4707 7.44 29.2173 7.44 29.836C7.20533 29.836 6.832 29.7827 6.32 29.676C5.808 29.5907 5.28533 29.484 4.752 29.356C4.21867 29.228 3.728 29.1 3.28 28.972C2.85333 28.844 2.59733 28.7373 2.512 28.652C2.85333 28.076 3.184 27.372 3.504 26.54C3.84533 25.6867 4.176 24.8013 4.496 23.884C4.816 22.9453 5.12533 22.0067 5.424 21.068C5.72267 20.108 6 19.2227 6.256 18.412C5.72267 16.748 5.2 15.1907 4.688 13.74C4.19733 12.268 3.71733 10.9453 3.248 9.772C2.77867 8.57733 2.33067 7.55333 1.904 6.7C1.47733 5.84667 1.072 5.196 0.688 4.748C0.901334 4.66267 1.22133 4.57733 1.648 4.492C2.096 4.40667 2.576 4.32133 3.088 4.236C3.62133 4.15067 4.15467 4.08667 4.688 4.044C5.24267 3.98 5.73333 3.93733 6.16 3.916C6.16 4.44933 6.20267 5.1 6.288 5.868C6.39467 6.636 6.52267 7.45733 6.672 8.332C6.84267 9.20667 7.03467 10.092 7.248 10.988C7.46133 11.884 7.67467 12.7053 7.888 13.452C8.10133 14.1987 8.304 14.8493 8.496 15.404C8.70933 15.9373 8.89067 16.2893 9.04 16.46ZM17.9113 28.62C16.6953 28.492 15.7246 27.9587 14.9993 27.02C14.2739 26.0813 13.9113 24.8867 13.9113 23.436C13.9113 22.5827 14.0393 21.6973 14.2953 20.78C14.5513 19.8627 14.9139 18.9773 15.3833 18.124C15.8526 17.2493 16.4073 16.428 17.0473 15.66C17.6873 14.892 18.3806 14.2307 19.1273 13.676C20.3006 12.8013 21.3993 12.364 22.4233 12.364C23.1059 12.7267 23.7779 13.484 24.4393 14.636C24.5459 14.636 24.6419 14.636 24.7273 14.636C24.8126 14.6147 24.9086 14.604 25.0153 14.604C26.1459 14.604 26.7113 15.6067 26.7113 17.612C26.7113 18.956 26.4873 20.236 26.0393 21.452C25.6126 22.6467 25.0046 23.7347 24.2153 24.716C23.4473 25.6973 22.5193 26.5293 21.4313 27.212C20.3646 27.8733 19.1913 28.3427 17.9113 28.62ZM19.5433 18.54C19.1806 19.0307 18.8393 19.564 18.5193 20.14C18.1993 20.716 17.9219 21.3027 17.6873 21.9C17.4526 22.476 17.2713 23.0413 17.1433 23.596C17.0153 24.1293 16.9513 24.6093 16.9513 25.036C16.9513 25.548 17.0366 26.0387 17.2073 26.508C17.3779 26.9773 17.5699 27.244 17.7833 27.308C18.7433 27.0947 19.6179 26.7 20.4073 26.124C21.2179 25.5267 21.9113 24.7907 22.4873 23.916C23.0846 23.0413 23.5433 22.0493 23.8633 20.94C24.2046 19.8307 24.3753 18.6467 24.3753 17.388C24.3753 16.8333 24.3433 16.396 24.2793 16.076C24.2153 15.756 24.1086 15.4787 23.9593 15.244C23.0206 15.5213 22.1779 15.9693 21.4313 16.588C20.7059 17.2067 20.0766 17.8573 19.5433 18.54ZM36.9643 26.796C36.5589 26.4547 36.2816 26.028 36.1323 25.516C36.0043 25.004 35.9403 24.5667 35.9403 24.204C35.9403 23.756 35.9936 23.372 36.1003 23.052C36.0149 23.052 35.8229 23.2227 35.5243 23.564C35.2256 23.9053 34.8949 24.3107 34.5323 24.78C34.1909 25.2493 33.8496 25.708 33.5083 26.156C33.1669 26.604 32.9109 26.9347 32.7403 27.148C32.4629 27.4467 32.1963 27.6813 31.9403 27.852C31.7056 28.0227 31.5136 28.1187 31.3643 28.14C31.0229 28.1187 30.6603 28.044 30.2763 27.916C29.9136 27.8093 29.5616 27.6493 29.2203 27.436C28.9003 27.2227 28.6123 26.9667 28.3563 26.668C28.1216 26.3693 27.9616 26.028 27.8763 25.644C27.8763 25.0467 27.8869 24.556 27.9083 24.172C27.9509 23.788 28.0256 23.372 28.1323 22.924C28.3243 22.1133 28.6016 21.196 28.9643 20.172C29.3483 19.148 29.7856 18.1453 30.2763 17.164C30.7669 16.1613 31.3109 15.2333 31.9083 14.38C32.5269 13.5053 33.1776 12.8227 33.8603 12.332C34.0523 12.332 34.2763 12.3533 34.5323 12.396C34.7883 12.4173 35.0443 12.4707 35.3003 12.556C35.5776 12.6413 35.8336 12.748 36.0683 12.876C36.3243 12.9827 36.5376 13.132 36.7083 13.324C36.5163 13.5373 36.0256 14.252 35.2363 15.468C34.4683 16.684 33.6043 18.4333 32.6443 20.716C32.5376 20.9507 32.4096 21.292 32.2603 21.74C32.1109 22.188 31.9616 22.6573 31.8123 23.148C31.6629 23.6387 31.5349 24.1187 31.4283 24.588C31.3429 25.0573 31.3003 25.4307 31.3003 25.708C31.3003 25.8787 31.3216 26.0067 31.3643 26.092C31.4283 26.1773 31.4816 26.2413 31.5243 26.284C31.8443 26.156 32.2496 25.804 32.7403 25.228C33.2309 24.652 33.9136 23.7667 34.7883 22.572C35.0016 22.2733 35.2469 21.932 35.5243 21.548C35.8229 21.164 36.1216 20.7587 36.4203 20.332C36.7189 19.884 36.9963 19.4253 37.2523 18.956C37.5296 18.4867 37.7536 18.0173 37.9243 17.548C38.0096 17.292 38.1163 16.9933 38.2443 16.652C38.3936 16.2893 38.5643 15.916 38.7563 15.532C38.9696 15.148 39.2043 14.764 39.4603 14.38C39.7376 13.9747 40.0576 13.6013 40.4203 13.26C40.6976 13.26 40.9963 13.292 41.3162 13.356C41.6363 13.42 41.9349 13.5053 42.2123 13.612C42.5109 13.6973 42.7669 13.804 42.9803 13.932C43.1936 14.0387 43.3536 14.156 43.4603 14.284C43.0763 15.2227 42.6496 16.1507 42.1803 17.068C41.7109 17.9853 41.2736 18.892 40.8683 19.788C40.4629 20.6627 40.1216 21.5373 39.8443 22.412C39.5669 23.2867 39.4283 24.14 39.4283 24.972C39.4283 25.42 39.4603 25.8147 39.5243 26.156C39.6096 26.476 39.6949 26.7533 39.7803 26.988C39.8656 27.2013 39.9403 27.3827 40.0043 27.532C40.0896 27.6813 40.1323 27.8093 40.1323 27.916C40.1323 27.9373 40.1109 27.9693 40.0683 28.012C40.0469 28.0333 40.0256 28.044 40.0043 28.044C39.8549 28.044 39.6629 28.012 39.4283 27.948C39.1936 27.884 38.9269 27.788 38.6283 27.66C38.3509 27.5533 38.0629 27.4253 37.7643 27.276C37.4869 27.1267 37.2203 26.9667 36.9643 26.796ZM43.3048 26.86C43.4114 26.2413 43.5928 25.4307 43.8488 24.428C44.1261 23.404 44.4461 22.3267 44.8088 21.196C45.1714 20.044 45.5554 18.892 45.9608 17.74C46.3661 16.588 46.7608 15.5533 47.1448 14.636C47.4221 13.9747 47.6674 13.4627 47.8808 13.1C48.0941 12.716 48.3288 12.396 48.5848 12.14C48.8834 12.1827 49.1928 12.2573 49.5128 12.364C49.8328 12.4707 50.1421 12.5987 50.4408 12.748C50.7394 12.8973 51.0061 13.0573 51.2408 13.228C51.4754 13.3773 51.6568 13.5267 51.7848 13.676C51.2088 14.3587 50.6968 15.1373 50.2488 16.012C49.8221 16.8867 49.3848 18.0067 48.9368 19.372C50.0888 18.348 51.1021 17.3667 51.9768 16.428C52.8728 15.4893 53.7048 14.444 54.4728 13.292C54.6008 13.1853 54.8248 13.132 55.1448 13.132C55.4434 13.132 55.7314 13.1853 56.0088 13.292C56.2861 13.3773 56.4781 13.5053 56.5848 13.676C56.2008 14.7 56.0088 15.7133 56.0088 16.716C56.0088 17.6547 56.1474 18.3587 56.4248 18.828C56.4034 18.956 56.2541 19.2013 55.9768 19.564C55.7208 19.9267 55.4328 20.268 55.1128 20.588C54.5368 20.2893 54.0248 19.884 53.5768 19.372C53.1288 18.8387 52.7981 18.2627 52.5848 17.644C51.5821 18.348 50.7288 19.0413 50.0248 19.724C49.3208 20.3853 48.7128 21.132 48.2008 21.964C47.7101 22.7747 47.2834 23.7133 46.9208 24.78C46.5794 25.8467 46.2488 27.116 45.9288 28.588C45.7368 28.5667 45.5021 28.492 45.2248 28.364C44.9688 28.2573 44.7021 28.1187 44.4248 27.948C44.1688 27.7773 43.9341 27.596 43.7208 27.404C43.5074 27.212 43.3688 27.0307 43.3048 26.86ZM65.308 21.516C66.0973 18.3587 66.8653 16.0547 67.612 14.604C68.38 13.132 69.18 12.396 70.012 12.396C70.6093 12.396 71.324 12.684 72.156 13.26C71.4733 14.476 70.94 15.4893 70.556 16.3C70.1933 17.0893 69.9267 17.8147 69.756 18.476C69.3933 19.756 69.0093 21.0893 68.604 22.476C68.1987 23.8413 67.7933 25.1533 67.388 26.412C67.004 27.6707 66.6413 28.8013 66.3 29.804C65.98 30.828 65.724 31.6067 65.532 32.14C65.0627 33.3987 64.5933 34.4653 64.124 35.34C63.676 36.2147 63.2067 36.9293 62.716 37.484C62.2253 38.0387 61.7133 38.444 61.18 38.7C60.6253 38.956 60.028 39.084 59.388 39.084C58.9187 39.084 58.46 39.0307 58.012 38.924C57.5427 38.8387 57.1053 38.7107 56.7 38.54C56.2947 38.3907 55.932 38.1987 55.612 37.964C55.292 37.7293 55.036 37.484 54.844 37.228C54.8653 37.0787 54.94 36.9293 55.068 36.78C55.1747 36.652 55.2813 36.5773 55.388 36.556C55.7507 36.94 56.1347 37.2173 56.54 37.388C56.924 37.5587 57.3933 37.644 57.948 37.644C58.6307 37.644 59.2387 37.4413 59.772 37.036C60.284 36.6307 60.8067 35.8413 61.34 34.668C61.8733 33.516 62.4493 31.884 63.068 29.772C63.6867 27.6813 64.4333 24.9293 65.308 21.516ZM70.524 9.868C70.524 9.76133 70.556 9.58 70.62 9.324C70.364 9.068 70.236 8.70533 70.236 8.236C70.236 8.044 70.2573 7.77733 70.3 7.436C70.364 7.09467 70.4387 6.732 70.524 6.348C70.6307 5.94267 70.7373 5.53733 70.844 5.132C70.972 4.72666 71.1 4.37466 71.228 4.076C71.484 4.076 71.7933 4.15067 72.156 4.3C72.54 4.428 72.924 4.60933 73.308 4.844C73.692 5.05733 74.044 5.30267 74.364 5.58C74.684 5.836 74.9293 6.08133 75.1 6.316C74.844 6.55067 74.524 6.88133 74.14 7.308C73.756 7.73467 73.3827 8.18267 73.02 8.652C72.6573 9.1 72.3267 9.52667 72.028 9.932C71.7293 10.316 71.548 10.5933 71.484 10.764C71.228 10.7213 71.004 10.6147 70.812 10.444C70.62 10.252 70.524 10.06 70.524 9.868ZM75.9425 28.62C74.7265 28.492 73.7558 27.9587 73.0305 27.02C72.3052 26.0813 71.9425 24.8867 71.9425 23.436C71.9425 22.5827 72.0705 21.6973 72.3265 20.78C72.5825 19.8627 72.9452 18.9773 73.4145 18.124C73.8838 17.2493 74.4385 16.428 75.0785 15.66C75.7185 14.892 76.4118 14.2307 77.1585 13.676C78.3318 12.8013 79.4305 12.364 80.4545 12.364C81.1372 12.7267 81.8092 13.484 82.4705 14.636C82.5772 14.636 82.6732 14.636 82.7585 14.636C82.8438 14.6147 82.9398 14.604 83.0465 14.604C84.1772 14.604 84.7425 15.6067 84.7425 17.612C84.7425 18.956 84.5185 20.236 84.0705 21.452C83.6438 22.6467 83.0358 23.7347 82.2465 24.716C81.4785 25.6973 80.5505 26.5293 79.4625 27.212C78.3958 27.8733 77.2225 28.3427 75.9425 28.62ZM77.5745 18.54C77.2118 19.0307 76.8705 19.564 76.5505 20.14C76.2305 20.716 75.9532 21.3027 75.7185 21.9C75.4838 22.476 75.3025 23.0413 75.1745 23.596C75.0465 24.1293 74.9825 24.6093 74.9825 25.036C74.9825 25.548 75.0678 26.0387 75.2385 26.508C75.4092 26.9773 75.6012 27.244 75.8145 27.308C76.7745 27.0947 77.6492 26.7 78.4385 26.124C79.2492 25.5267 79.9425 24.7907 80.5185 23.916C81.1158 23.0413 81.5745 22.0493 81.8945 20.94C82.2358 19.8307 82.4065 18.6467 82.4065 17.388C82.4065 16.8333 82.3745 16.396 82.3105 16.076C82.2465 15.756 82.1398 15.4787 81.9905 15.244C81.0518 15.5213 80.2092 15.9693 79.4625 16.588C78.7372 17.2067 78.1078 17.8573 77.5745 18.54ZM94.9955 26.796C94.5902 26.4547 94.3128 26.028 94.1635 25.516C94.0355 25.004 93.9715 24.5667 93.9715 24.204C93.9715 23.756 94.0248 23.372 94.1315 23.052C94.0462 23.052 93.8542 23.2227 93.5555 23.564C93.2568 23.9053 92.9262 24.3107 92.5635 24.78C92.2222 25.2493 91.8808 25.708 91.5395 26.156C91.1982 26.604 90.9422 26.9347 90.7715 27.148C90.4942 27.4467 90.2275 27.6813 89.9715 27.852C89.7368 28.0227 89.5448 28.1187 89.3955 28.14C89.0542 28.1187 88.6915 28.044 88.3075 27.916C87.9448 27.8093 87.5928 27.6493 87.2515 27.436C86.9315 27.2227 86.6435 26.9667 86.3875 26.668C86.1528 26.3693 85.9928 26.028 85.9075 25.644C85.9075 25.0467 85.9182 24.556 85.9395 24.172C85.9822 23.788 86.0568 23.372 86.1635 22.924C86.3555 22.1133 86.6328 21.196 86.9955 20.172C87.3795 19.148 87.8168 18.1453 88.3075 17.164C88.7982 16.1613 89.3422 15.2333 89.9395 14.38C90.5582 13.5053 91.2088 12.8227 91.8915 12.332C92.0835 12.332 92.3075 12.3533 92.5635 12.396C92.8195 12.4173 93.0755 12.4707 93.3315 12.556C93.6088 12.6413 93.8648 12.748 94.0995 12.876C94.3555 12.9827 94.5688 13.132 94.7395 13.324C94.5475 13.5373 94.0568 14.252 93.2675 15.468C92.4995 16.684 91.6355 18.4333 90.6755 20.716C90.5688 20.9507 90.4408 21.292 90.2915 21.74C90.1422 22.188 89.9928 22.6573 89.8435 23.148C89.6942 23.6387 89.5662 24.1187 89.4595 24.588C89.3742 25.0573 89.3315 25.4307 89.3315 25.708C89.3315 25.8787 89.3528 26.0067 89.3955 26.092C89.4595 26.1773 89.5128 26.2413 89.5555 26.284C89.8755 26.156 90.2808 25.804 90.7715 25.228C91.2622 24.652 91.9448 23.7667 92.8195 22.572C93.0328 22.2733 93.2782 21.932 93.5555 21.548C93.8542 21.164 94.1528 20.7587 94.4515 20.332C94.7502 19.884 95.0275 19.4253 95.2835 18.956C95.5608 18.4867 95.7848 18.0173 95.9555 17.548C96.0408 17.292 96.1475 16.9933 96.2755 16.652C96.4248 16.2893 96.5955 15.916 96.7875 15.532C97.0008 15.148 97.2355 14.764 97.4915 14.38C97.7688 13.9747 98.0888 13.6013 98.4515 13.26C98.7288 13.26 99.0275 13.292 99.3475 13.356C99.6675 13.42 99.9662 13.5053 100.244 13.612C100.542 13.6973 100.798 13.804 101.012 13.932C101.225 14.0387 101.385 14.156 101.492 14.284C101.108 15.2227 100.681 16.1507 100.212 17.068C99.7422 17.9853 99.3048 18.892 98.8995 19.788C98.4942 20.6627 98.1528 21.5373 97.8755 22.412C97.5982 23.2867 97.4595 24.14 97.4595 24.972C97.4595 25.42 97.4915 25.8147 97.5555 26.156C97.6408 26.476 97.7262 26.7533 97.8115 26.988C97.8968 27.2013 97.9715 27.3827 98.0355 27.532C98.1208 27.6813 98.1635 27.8093 98.1635 27.916C98.1635 27.9373 98.1422 27.9693 98.0995 28.012C98.0782 28.0333 98.0568 28.044 98.0355 28.044C97.8862 28.044 97.6942 28.012 97.4595 27.948C97.2248 27.884 96.9582 27.788 96.6595 27.66C96.3822 27.5533 96.0942 27.4253 95.7955 27.276C95.5182 27.1267 95.2515 26.9667 94.9955 26.796ZM101.336 26.86C101.443 26.2413 101.624 25.4307 101.88 24.428C102.157 23.404 102.477 22.3267 102.84 21.196C103.203 20.044 103.587 18.892 103.992 17.74C104.397 16.588 104.792 15.5533 105.176 14.636C105.453 13.9747 105.699 13.4627 105.912 13.1C106.125 12.716 106.36 12.396 106.616 12.14C106.915 12.1827 107.224 12.2573 107.544 12.364C107.864 12.4707 108.173 12.5987 108.472 12.748C108.771 12.8973 109.037 13.0573 109.272 13.228C109.507 13.3773 109.688 13.5267 109.816 13.676C109.24 14.3587 108.728 15.1373 108.28 16.012C107.853 16.8867 107.416 18.0067 106.968 19.372C108.12 18.348 109.133 17.3667 110.008 16.428C110.904 15.4893 111.736 14.444 112.504 13.292C112.632 13.1853 112.856 13.132 113.176 13.132C113.475 13.132 113.763 13.1853 114.04 13.292C114.317 13.3773 114.509 13.5053 114.616 13.676C114.232 14.7 114.04 15.7133 114.04 16.716C114.04 17.6547 114.179 18.3587 114.456 18.828C114.435 18.956 114.285 19.2013 114.008 19.564C113.752 19.9267 113.464 20.268 113.144 20.588C112.568 20.2893 112.056 19.884 111.608 19.372C111.16 18.8387 110.829 18.2627 110.616 17.644C109.613 18.348 108.76 19.0413 108.056 19.724C107.352 20.3853 106.744 21.132 106.232 21.964C105.741 22.7747 105.315 23.7133 104.952 24.78C104.611 25.8467 104.28 27.116 103.96 28.588C103.768 28.5667 103.533 28.492 103.256 28.364C103 28.2573 102.733 28.1187 102.456 27.948C102.2 27.7773 101.965 27.596 101.752 27.404C101.539 27.212 101.4 27.0307 101.336 26.86ZM120.194 11.98C120.749 12.1507 121.272 12.5347 121.762 13.132C122.253 13.708 122.616 14.348 122.85 15.052C122.616 15.628 122.253 16.3213 121.762 17.132C121.272 17.9427 120.781 18.7747 120.29 19.628C119.8 20.46 119.352 21.26 118.946 22.028C118.562 22.7747 118.338 23.3933 118.274 23.884C118.616 23.5213 118.989 23.1053 119.394 22.636C119.821 22.1453 120.226 21.6653 120.61 21.196C121.016 20.7053 121.389 20.268 121.73 19.884C122.072 19.4787 122.338 19.18 122.53 18.988C122.936 18.5613 123.416 18.0707 123.97 17.516C124.525 16.94 125.101 16.4067 125.698 15.916C126.317 15.404 126.936 14.9773 127.554 14.636C128.173 14.2733 128.738 14.092 129.25 14.092C129.805 14.092 130.264 14.284 130.626 14.668C131.01 15.0307 131.309 15.4147 131.522 15.82C131.522 15.8627 131.437 15.9267 131.266 16.012C131.117 16.076 130.893 16.2787 130.594 16.62C130.296 17.004 129.954 17.5373 129.57 18.22C129.208 18.8813 128.845 19.6067 128.482 20.396C128.141 21.164 127.853 21.9533 127.618 22.764C127.384 23.5747 127.266 24.3107 127.266 24.972C127.266 25.5053 127.33 25.8467 127.458 25.996C127.608 26.1453 127.81 26.22 128.066 26.22C128.301 26.22 128.546 26.1667 128.802 26.06C129.058 25.9533 129.261 25.9 129.41 25.9C129.496 25.9427 129.56 26.0387 129.602 26.188C129.666 26.316 129.698 26.4333 129.698 26.54C129.528 26.6893 129.325 26.8387 129.09 26.988C128.856 27.1373 128.61 27.276 128.354 27.404C128.098 27.532 127.842 27.6387 127.586 27.724C127.352 27.8093 127.138 27.852 126.946 27.852C126.328 27.852 125.816 27.756 125.41 27.564C125.026 27.3933 124.717 27.1587 124.482 26.86C124.269 26.5613 124.12 26.2093 124.034 25.804C123.949 25.3773 123.906 24.9293 123.906 24.46C123.906 24.204 123.928 23.916 123.97 23.596C124.013 23.276 124.098 22.9027 124.226 22.476C124.354 22.028 124.536 21.5053 124.77 20.908C125.005 20.2893 125.304 19.5533 125.666 18.7C125.624 18.7 125.336 18.8493 124.802 19.148C124.269 19.4467 123.693 19.9053 123.074 20.524C122.072 21.484 121.165 22.4333 120.354 23.372C119.565 24.3107 118.754 25.356 117.922 26.508C117.453 27.1693 117.037 27.724 116.674 28.172C116.333 28.6413 116.034 28.9507 115.778 29.1C115.33 28.844 115 28.4813 114.786 28.012C114.573 27.564 114.413 27.0947 114.306 26.604C114.306 26.1987 114.36 25.6867 114.466 25.068C114.594 24.4493 114.754 23.7667 114.946 23.02C115.16 22.252 115.416 21.452 115.714 20.62C116.013 19.788 116.344 18.956 116.706 18.124C117.517 16.2467 118.253 14.7747 118.914 13.708C119.597 12.6413 120.024 12.0653 120.194 11.98ZM143.748 14.252C143.662 15.5747 143.428 16.716 143.044 17.676C142.66 18.6147 142.105 19.4467 141.38 20.172C140.676 20.876 139.812 21.516 138.788 22.092C137.764 22.668 136.569 23.2227 135.204 23.756C135.204 23.884 135.193 24.0227 135.172 24.172C135.172 24.3 135.172 24.4387 135.172 24.588C135.172 24.8653 135.193 25.1533 135.236 25.452C135.278 25.7507 135.353 26.028 135.46 26.284C135.566 26.54 135.716 26.7533 135.908 26.924C136.1 27.0733 136.345 27.148 136.644 27.148C137.22 27.148 137.785 27.02 138.34 26.764C138.894 26.508 139.417 26.1987 139.908 25.836C140.42 25.452 140.889 25.0467 141.316 24.62C141.764 24.172 142.158 23.7667 142.5 23.404C142.713 23.596 142.894 23.7773 143.044 23.948C142.084 25.228 141.028 26.2947 139.876 27.148C138.745 27.98 137.668 28.5133 136.644 28.748C135.172 28.5773 134.02 28.044 133.188 27.148C132.377 26.2307 131.972 25.132 131.972 23.852C131.972 22.9773 132.089 22.092 132.324 21.196C132.58 20.2787 132.921 19.404 133.348 18.572C133.796 17.7187 134.308 16.9187 134.884 16.172C135.481 15.4253 136.11 14.7747 136.772 14.22C137.454 13.6653 138.148 13.228 138.852 12.908C139.577 12.588 140.292 12.428 140.996 12.428C141.977 12.556 142.894 13.164 143.748 14.252ZM141.54 15.308C140.964 15.3933 140.366 15.628 139.748 16.012C139.129 16.396 138.542 16.908 137.988 17.548C137.454 18.188 136.964 18.9347 136.516 19.788C136.068 20.6413 135.716 21.5587 135.46 22.54C137.166 21.6867 138.585 20.6413 139.716 19.404C140.846 18.1453 141.454 16.78 141.54 15.308ZM157.261 22.54C156.77 24.0973 156.28 25.516 155.789 26.796C155.298 28.076 154.776 29.2493 154.221 30.316C153.666 31.404 153.069 32.396 152.429 33.292C151.789 34.2093 151.085 35.0733 150.317 35.884C149.336 36.908 148.322 37.6867 147.277 38.22C146.232 38.7747 145.186 39.052 144.141 39.052C143.608 39.052 143.074 38.988 142.541 38.86C142.029 38.7533 141.549 38.5933 141.101 38.38C140.632 38.188 140.226 37.9533 139.885 37.676C139.522 37.42 139.266 37.1427 139.117 36.844C139.117 36.588 139.266 36.364 139.565 36.172C139.821 36.4067 140.034 36.588 140.205 36.716C140.376 36.844 140.546 36.9507 140.717 37.036C140.866 37.1213 141.037 37.1747 141.229 37.196C141.4 37.2173 141.602 37.228 141.837 37.228C143.053 37.228 144.237 36.8653 145.389 36.14C146.562 35.436 147.661 34.4227 148.685 33.1C149.73 31.7987 150.68 30.2093 151.533 28.332C152.386 26.476 153.112 24.396 153.709 22.092C153.432 22.5187 153.09 23.0413 152.685 23.66C152.28 24.2787 151.832 24.8973 151.341 25.516C150.85 26.1133 150.338 26.6573 149.805 27.148C149.293 27.6387 148.792 27.9693 148.301 28.14C147.96 28.1187 147.597 28.044 147.213 27.916C146.85 27.8093 146.498 27.6493 146.157 27.436C145.837 27.2227 145.549 26.9667 145.293 26.668C145.037 26.3693 144.866 26.028 144.781 25.644C144.781 25.0253 144.802 24.5347 144.845 24.172C144.888 23.788 144.962 23.372 145.069 22.924C145.261 22.1133 145.538 21.196 145.901 20.172C146.285 19.148 146.722 18.1453 147.213 17.164C147.725 16.1613 148.28 15.2333 148.877 14.38C149.496 13.5053 150.136 12.8227 150.797 12.332C150.968 12.332 151.181 12.3533 151.437 12.396C151.693 12.4173 151.96 12.4707 152.237 12.556C152.514 12.6413 152.781 12.748 153.037 12.876C153.293 12.9827 153.517 13.132 153.709 13.324C153.474 13.5373 152.962 14.252 152.173 15.468C151.384 16.684 150.509 18.4333 149.549 20.716C149.442 20.9507 149.314 21.292 149.165 21.74C149.016 22.188 148.866 22.6573 148.717 23.148C148.589 23.6387 148.472 24.1187 148.365 24.588C148.258 25.0573 148.205 25.4307 148.205 25.708C148.205 25.8787 148.226 26.0067 148.269 26.092C148.333 26.1773 148.386 26.2413 148.429 26.284C148.813 26.22 149.325 25.9107 149.965 25.356C150.605 24.78 151.33 23.8947 152.141 22.7C152.653 21.932 153.122 21.1747 153.549 20.428C153.976 19.66 154.392 18.892 154.797 18.124C155.224 17.356 155.661 16.5667 156.109 15.756C156.557 14.9453 157.037 14.1133 157.549 13.26C157.826 13.26 158.125 13.292 158.445 13.356C158.765 13.42 159.074 13.5053 159.373 13.612C159.672 13.6973 159.928 13.804 160.141 13.932C160.376 14.0387 160.546 14.156 160.653 14.284C159.992 15.692 159.373 17.068 158.797 18.412C158.221 19.756 157.709 21.132 157.261 22.54ZM179.55 14.764C179.529 15.1693 179.454 15.596 179.326 16.044C179.22 16.4707 179.081 16.8653 178.91 17.228C178.74 17.5693 178.558 17.8573 178.366 18.092C178.174 18.3267 177.993 18.444 177.822 18.444C177.588 18.4227 177.449 18.2627 177.406 17.964C177.406 17.9 177.428 17.804 177.47 17.676C177.534 17.5267 177.598 17.3667 177.662 17.196C177.726 17.0253 177.78 16.8547 177.822 16.684C177.886 16.5133 177.918 16.364 177.918 16.236C177.918 15.9373 177.844 15.692 177.694 15.5C177.566 15.2867 177.385 15.18 177.15 15.18C176.297 15.18 175.646 15.7133 175.198 16.78C174.75 17.8467 174.526 19.4147 174.526 21.484C174.526 21.6973 174.537 21.8253 174.558 21.868C175.006 21.8467 175.401 21.836 175.742 21.836C176.105 21.8147 176.457 21.804 176.798 21.804C176.82 21.8467 176.83 21.932 176.83 22.06C176.83 22.252 176.788 22.3907 176.702 22.476C176.212 22.5827 175.817 22.6787 175.518 22.764C175.241 22.828 175.028 22.892 174.878 22.956C174.729 23.02 174.633 23.0947 174.59 23.18C174.569 23.244 174.558 23.34 174.558 23.468C174.558 23.6387 174.558 23.8093 174.558 23.98C174.58 24.1507 174.59 24.364 174.59 24.62C174.59 26.412 174.1 27.852 173.118 28.94C172.158 30.028 170.814 30.6573 169.086 30.828C168.788 30.8067 168.478 30.7213 168.158 30.572C167.838 30.4227 167.529 30.2307 167.23 29.996C166.953 29.7613 166.708 29.4947 166.494 29.196C166.281 28.9187 166.132 28.6307 166.046 28.332C166.046 27.5213 166.217 26.7533 166.558 26.028C166.9 25.2813 167.358 24.6307 167.934 24.076C168.532 23.5 169.225 23.0413 170.014 22.7C170.825 22.3373 171.7 22.124 172.638 22.06C172.638 21.5267 172.585 21.004 172.478 20.492C172.372 19.98 172.254 19.4893 172.126 19.02C172.02 18.5293 171.913 18.06 171.806 17.612C171.7 17.1427 171.646 16.684 171.646 16.236C171.646 15.66 171.764 15.0947 171.998 14.54C172.233 13.964 172.542 13.4413 172.926 12.972C173.31 12.4813 173.758 12.0653 174.27 11.724C174.782 11.3827 175.316 11.148 175.87 11.02C176.105 11.084 176.414 11.276 176.798 11.596C177.204 11.8947 177.598 12.236 177.982 12.62C178.366 13.004 178.708 13.3987 179.006 13.804C179.305 14.188 179.486 14.508 179.55 14.764ZM168.99 29.356C169.502 29.1427 169.982 28.8333 170.43 28.428C170.9 28.0227 171.305 27.564 171.646 27.052C171.988 26.54 172.254 25.996 172.446 25.42C172.66 24.844 172.766 24.2787 172.766 23.724C172.34 23.788 171.87 23.9907 171.358 24.332C170.846 24.652 170.366 25.0467 169.918 25.516C169.47 25.964 169.097 26.4333 168.798 26.924C168.5 27.4147 168.35 27.8413 168.35 28.204C168.35 28.6733 168.564 29.0573 168.99 29.356ZM181.461 15.244C181.354 15.116 181.258 14.8493 181.173 14.444C181.087 14.0173 181.045 13.6547 181.045 13.356C181.599 13.3987 182.133 13.4413 182.645 13.484C183.157 13.5053 183.626 13.5267 184.053 13.548C184.373 12.908 184.714 12.2787 185.077 11.66C185.461 11.02 185.823 10.444 186.165 9.932C186.527 9.39867 186.858 8.95067 187.157 8.588C187.477 8.22533 187.722 7.99067 187.893 7.884C188.106 7.884 188.373 7.92667 188.693 8.012C189.034 8.076 189.375 8.172 189.717 8.3C190.058 8.40667 190.367 8.524 190.645 8.652C190.922 8.78 191.114 8.908 191.221 9.036C190.581 9.84667 190.026 10.604 189.557 11.308C189.109 11.9907 188.618 12.78 188.085 13.676C188.511 13.676 188.938 13.6653 189.365 13.644C189.813 13.6227 190.261 13.5907 190.709 13.548C190.815 13.6547 190.901 13.7933 190.965 13.964C191.029 14.1133 191.061 14.2733 191.061 14.444C190.015 14.828 188.746 15.0413 187.253 15.084C186.719 16.108 186.239 17.132 185.813 18.156C185.407 19.1587 185.055 20.1293 184.757 21.068C184.479 22.0067 184.255 22.892 184.085 23.724C183.935 24.556 183.861 25.3027 183.861 25.964C183.861 26.9027 184.213 27.4253 184.917 27.532C185.557 27.4467 186.165 27.2867 186.741 27.052C187.317 26.8173 187.829 26.5187 188.277 26.156C188.405 26.348 188.479 26.508 188.501 26.636C188.373 26.828 188.149 27.052 187.829 27.308C187.53 27.564 187.199 27.8093 186.837 28.044C186.474 28.3 186.122 28.5133 185.781 28.684C185.439 28.8547 185.183 28.9507 185.013 28.972C184.479 28.9507 183.946 28.8333 183.413 28.62C182.879 28.4067 182.389 28.14 181.941 27.82C181.514 27.5 181.162 27.148 180.885 26.764C180.607 26.3587 180.469 25.964 180.469 25.58C180.469 25.068 180.533 24.428 180.661 23.66C180.81 22.8707 181.013 22.0173 181.269 21.1C181.525 20.1827 181.823 19.2227 182.165 18.22C182.506 17.2173 182.879 16.2253 183.285 15.244H181.461ZM201.863 14.572C202.076 14.572 202.321 14.6147 202.599 14.7C202.897 14.764 203.164 14.86 203.399 14.988C203.633 15.0947 203.825 15.212 203.975 15.34C204.145 15.468 204.231 15.5853 204.231 15.692C203.804 16.588 203.409 17.4947 203.047 18.412C202.684 19.308 202.375 20.172 202.119 21.004C201.863 21.836 201.66 22.6147 201.511 23.34C201.383 24.0653 201.319 24.6947 201.319 25.228C201.319 25.8253 201.383 26.3267 201.511 26.732C201.639 27.116 201.852 27.3933 202.151 27.564C201.895 27.7347 201.564 27.8733 201.159 27.98C200.753 28.0867 200.391 28.14 200.071 28.14C198.919 28.14 198.343 27.3507 198.343 25.772C198.343 24.556 198.748 22.892 199.559 20.78C199.132 21.7613 198.641 22.6893 198.087 23.564C197.532 24.4173 196.967 25.1747 196.391 25.836C195.815 26.4973 195.228 27.0413 194.631 27.468C194.055 27.8733 193.521 28.1187 193.031 28.204C192.241 28.1613 191.601 27.788 191.111 27.084C190.62 26.3587 190.375 25.4413 190.375 24.332C190.375 23.1373 190.631 21.8787 191.143 20.556C191.655 19.2333 192.305 18.0067 193.095 16.876C193.905 15.7453 194.78 14.8067 195.719 14.06C196.657 13.292 197.564 12.8867 198.439 12.844C198.652 12.908 198.887 13.036 199.143 13.228C199.42 13.42 199.676 13.644 199.911 13.9C200.167 14.156 200.38 14.4227 200.551 14.7C200.721 14.956 200.817 15.18 200.839 15.372C199.985 15.5 199.1 15.916 198.183 16.62C197.287 17.324 196.465 18.1773 195.719 19.18C194.993 20.1613 194.396 21.2173 193.927 22.348C193.457 23.4787 193.223 24.5347 193.223 25.516C193.223 25.9213 193.372 26.1773 193.671 26.284C194.289 26.156 195.004 25.6333 195.815 24.716C196.625 23.7773 197.607 22.3373 198.759 20.396C198.972 20.012 199.207 19.5853 199.463 19.116C199.74 18.6467 200.017 18.156 200.295 17.644C200.572 17.132 200.839 16.62 201.095 16.108C201.372 15.5747 201.628 15.0627 201.863 14.572ZM205.086 26.86C205.193 26.2413 205.374 25.4307 205.63 24.428C205.907 23.404 206.227 22.3267 206.59 21.196C206.953 20.044 207.337 18.892 207.742 17.74C208.147 16.588 208.542 15.5533 208.926 14.636C209.203 13.9747 209.449 13.4627 209.662 13.1C209.875 12.716 210.11 12.396 210.366 12.14C210.665 12.1827 210.974 12.2573 211.294 12.364C211.614 12.4707 211.923 12.5987 212.222 12.748C212.521 12.8973 212.787 13.0573 213.022 13.228C213.257 13.3773 213.438 13.5267 213.566 13.676C212.99 14.3587 212.478 15.1373 212.03 16.012C211.603 16.8867 211.166 18.0067 210.718 19.372C211.87 18.348 212.883 17.3667 213.758 16.428C214.654 15.4893 215.486 14.444 216.254 13.292C216.382 13.1853 216.606 13.132 216.926 13.132C217.225 13.132 217.513 13.1853 217.79 13.292C218.067 13.3773 218.259 13.5053 218.366 13.676C217.982 14.7 217.79 15.7133 217.79 16.716C217.79 17.6547 217.929 18.3587 218.206 18.828C218.185 18.956 218.035 19.2013 217.758 19.564C217.502 19.9267 217.214 20.268 216.894 20.588C216.318 20.2893 215.806 19.884 215.358 19.372C214.91 18.8387 214.579 18.2627 214.366 17.644C213.363 18.348 212.51 19.0413 211.806 19.724C211.102 20.3853 210.494 21.132 209.982 21.964C209.491 22.7747 209.065 23.7133 208.702 24.78C208.361 25.8467 208.03 27.116 207.71 28.588C207.518 28.5667 207.283 28.492 207.006 28.364C206.75 28.2573 206.483 28.1187 206.206 27.948C205.95 27.7773 205.715 27.596 205.502 27.404C205.289 27.212 205.15 27.0307 205.086 26.86ZM220.648 15.244C220.542 15.116 220.446 14.8493 220.36 14.444C220.275 14.0173 220.232 13.6547 220.232 13.356C220.787 13.3987 221.32 13.4413 221.832 13.484C222.344 13.5053 222.814 13.5267 223.24 13.548C223.56 12.908 223.902 12.2787 224.264 11.66C224.648 11.02 225.011 10.444 225.352 9.932C225.715 9.39867 226.046 8.95067 226.344 8.588C226.664 8.22533 226.91 7.99067 227.08 7.884C227.294 7.884 227.56 7.92667 227.88 8.012C228.222 8.076 228.563 8.172 228.904 8.3C229.246 8.40667 229.555 8.524 229.832 8.652C230.11 8.78 230.302 8.908 230.408 9.036C229.768 9.84667 229.214 10.604 228.744 11.308C228.296 11.9907 227.806 12.78 227.272 13.676C227.699 13.676 228.126 13.6653 228.552 13.644C229 13.6227 229.448 13.5907 229.896 13.548C230.003 13.6547 230.088 13.7933 230.152 13.964C230.216 14.1133 230.248 14.2733 230.248 14.444C229.203 14.828 227.934 15.0413 226.44 15.084C225.907 16.108 225.427 17.132 225 18.156C224.595 19.1587 224.243 20.1293 223.944 21.068C223.667 22.0067 223.443 22.892 223.272 23.724C223.123 24.556 223.048 25.3027 223.048 25.964C223.048 26.9027 223.4 27.4253 224.104 27.532C224.744 27.4467 225.352 27.2867 225.928 27.052C226.504 26.8173 227.016 26.5187 227.464 26.156C227.592 26.348 227.667 26.508 227.688 26.636C227.56 26.828 227.336 27.052 227.016 27.308C226.718 27.564 226.387 27.8093 226.024 28.044C225.662 28.3 225.31 28.5133 224.968 28.684C224.627 28.8547 224.371 28.9507 224.2 28.972C223.667 28.9507 223.134 28.8333 222.6 28.62C222.067 28.4067 221.576 28.14 221.128 27.82C220.702 27.5 220.35 27.148 220.072 26.764C219.795 26.3587 219.656 25.964 219.656 25.58C219.656 25.068 219.72 24.428 219.848 23.66C219.998 22.8707 220.2 22.0173 220.456 21.1C220.712 20.1827 221.011 19.2227 221.352 18.22C221.694 17.2173 222.067 16.2253 222.472 15.244H220.648ZM241.05 14.764C241.029 15.1693 240.954 15.596 240.826 16.044C240.72 16.4707 240.581 16.8653 240.41 17.228C240.24 17.5693 240.058 17.8573 239.866 18.092C239.674 18.3267 239.493 18.444 239.322 18.444C239.088 18.4227 238.949 18.2627 238.906 17.964C238.906 17.9 238.928 17.804 238.97 17.676C239.034 17.5267 239.098 17.3667 239.162 17.196C239.226 17.0253 239.28 16.8547 239.322 16.684C239.386 16.5133 239.418 16.364 239.418 16.236C239.418 15.9373 239.344 15.692 239.194 15.5C239.066 15.2867 238.885 15.18 238.65 15.18C237.797 15.18 237.146 15.7133 236.698 16.78C236.25 17.8467 236.026 19.4147 236.026 21.484C236.026 21.6973 236.037 21.8253 236.058 21.868C236.506 21.8467 236.901 21.836 237.242 21.836C237.605 21.8147 237.957 21.804 238.298 21.804C238.32 21.8467 238.33 21.932 238.33 22.06C238.33 22.252 238.288 22.3907 238.202 22.476C237.712 22.5827 237.317 22.6787 237.018 22.764C236.741 22.828 236.528 22.892 236.378 22.956C236.229 23.02 236.133 23.0947 236.09 23.18C236.069 23.244 236.058 23.34 236.058 23.468C236.058 23.6387 236.058 23.8093 236.058 23.98C236.08 24.1507 236.09 24.364 236.09 24.62C236.09 26.412 235.6 27.852 234.618 28.94C233.658 30.028 232.314 30.6573 230.586 30.828C230.288 30.8067 229.978 30.7213 229.658 30.572C229.338 30.4227 229.029 30.2307 228.73 29.996C228.453 29.7613 228.208 29.4947 227.994 29.196C227.781 28.9187 227.632 28.6307 227.546 28.332C227.546 27.5213 227.717 26.7533 228.058 26.028C228.4 25.2813 228.858 24.6307 229.434 24.076C230.032 23.5 230.725 23.0413 231.514 22.7C232.325 22.3373 233.2 22.124 234.138 22.06C234.138 21.5267 234.085 21.004 233.978 20.492C233.872 19.98 233.754 19.4893 233.626 19.02C233.52 18.5293 233.413 18.06 233.306 17.612C233.2 17.1427 233.146 16.684 233.146 16.236C233.146 15.66 233.264 15.0947 233.498 14.54C233.733 13.964 234.042 13.4413 234.426 12.972C234.81 12.4813 235.258 12.0653 235.77 11.724C236.282 11.3827 236.816 11.148 237.37 11.02C237.605 11.084 237.914 11.276 238.298 11.596C238.704 11.8947 239.098 12.236 239.482 12.62C239.866 13.004 240.208 13.3987 240.506 13.804C240.805 14.188 240.986 14.508 241.05 14.764ZM230.49 29.356C231.002 29.1427 231.482 28.8333 231.93 28.428C232.4 28.0227 232.805 27.564 233.146 27.052C233.488 26.54 233.754 25.996 233.946 25.42C234.16 24.844 234.266 24.2787 234.266 23.724C233.84 23.788 233.37 23.9907 232.858 24.332C232.346 24.652 231.866 25.0467 231.418 25.516C230.97 25.964 230.597 26.4333 230.298 26.924C230 27.4147 229.85 27.8413 229.85 28.204C229.85 28.6733 230.064 29.0573 230.49 29.356ZM248.666 26.956C248.666 26.2093 248.74 25.3347 248.89 24.332C249.039 23.308 249.252 22.22 249.53 21.068C249.828 19.916 250.17 18.7107 250.554 17.452C250.959 16.1933 251.407 14.9347 251.898 13.676C252.324 12.5453 252.815 11.404 253.37 10.252C253.946 9.1 254.564 7.96933 255.226 6.86C255.887 5.75067 256.57 4.69467 257.274 3.692C257.999 2.68933 258.724 1.772 259.45 0.939999C259.791 0.939999 260.154 0.982665 260.538 1.068C260.943 1.15333 261.327 1.27067 261.69 1.42C262.074 1.548 262.415 1.708 262.714 1.9C263.034 2.092 263.29 2.284 263.482 2.476C261.882 4.11867 260.442 5.78267 259.162 7.468C257.882 9.132 256.868 10.7 256.122 12.172C255.716 12.9827 255.343 13.74 255.002 14.444C254.682 15.148 254.383 15.852 254.106 16.556C253.828 17.2387 253.572 17.932 253.338 18.636C253.124 19.3187 252.922 20.044 252.73 20.812C256.826 15.5853 259.866 12.972 261.85 12.972C262.404 12.972 263.002 13.1533 263.642 13.516C264.282 13.8787 264.847 14.3693 265.338 14.988C264.676 15.7133 263.994 16.588 263.29 17.612C262.586 18.636 261.935 19.6707 261.338 20.716C260.762 21.74 260.282 22.7 259.898 23.596C259.535 24.4707 259.354 25.1213 259.354 25.548C259.354 25.7613 259.386 25.9107 259.45 25.996C259.514 26.06 259.652 26.092 259.866 26.092C260.186 26.092 260.442 26.0493 260.634 25.964C260.826 25.8787 260.943 25.836 260.986 25.836C261.092 26.0067 261.156 26.124 261.178 26.188C261.199 26.252 261.21 26.3053 261.21 26.348C261.21 26.4333 261.082 26.5613 260.826 26.732C260.57 26.8813 260.26 27.0413 259.898 27.212C259.556 27.3613 259.215 27.5 258.874 27.628C258.532 27.756 258.276 27.82 258.106 27.82C257.892 27.82 257.679 27.756 257.466 27.628C257.252 27.5213 257.06 27.372 256.89 27.18C256.74 26.988 256.612 26.7747 256.506 26.54C256.42 26.3053 256.378 26.06 256.378 25.804C256.378 25.484 256.463 25.0147 256.634 24.396C256.826 23.756 257.082 23.02 257.402 22.188C257.722 21.3347 258.106 20.4067 258.554 19.404C259.002 18.4013 259.482 17.3773 259.994 16.332C259.994 16.2467 259.951 16.204 259.866 16.204C259.802 16.204 259.631 16.2893 259.354 16.46C259.098 16.6307 258.852 16.8013 258.618 16.972C257.85 17.548 257.071 18.2627 256.282 19.116C255.514 19.948 254.756 20.8653 254.01 21.868C253.284 22.8707 252.591 23.9373 251.93 25.068C251.29 26.1773 250.735 27.2973 250.266 28.428C250.202 28.5773 250.106 28.716 249.978 28.844C249.85 28.972 249.743 29.036 249.658 29.036C249.594 29.036 249.498 28.9613 249.37 28.812C249.263 28.6627 249.156 28.4707 249.05 28.236C248.964 28.0227 248.879 27.7987 248.794 27.564C248.708 27.3293 248.666 27.1267 248.666 26.956ZM276.685 14.252C276.6 15.5747 276.365 16.716 275.981 17.676C275.597 18.6147 275.042 19.4467 274.317 20.172C273.613 20.876 272.749 21.516 271.725 22.092C270.701 22.668 269.506 23.2227 268.141 23.756C268.141 23.884 268.13 24.0227 268.109 24.172C268.109 24.3 268.109 24.4387 268.109 24.588C268.109 24.8653 268.13 25.1533 268.173 25.452C268.216 25.7507 268.29 26.028 268.397 26.284C268.504 26.54 268.653 26.7533 268.845 26.924C269.037 27.0733 269.282 27.148 269.581 27.148C270.157 27.148 270.722 27.02 271.277 26.764C271.832 26.508 272.354 26.1987 272.845 25.836C273.357 25.452 273.826 25.0467 274.253 24.62C274.701 24.172 275.096 23.7667 275.437 23.404C275.65 23.596 275.832 23.7773 275.981 23.948C275.021 25.228 273.965 26.2947 272.813 27.148C271.682 27.98 270.605 28.5133 269.581 28.748C268.109 28.5773 266.957 28.044 266.125 27.148C265.314 26.2307 264.909 25.132 264.909 23.852C264.909 22.9773 265.026 22.092 265.261 21.196C265.517 20.2787 265.858 19.404 266.285 18.572C266.733 17.7187 267.245 16.9187 267.821 16.172C268.418 15.4253 269.048 14.7747 269.709 14.22C270.392 13.6653 271.085 13.228 271.789 12.908C272.514 12.588 273.229 12.428 273.933 12.428C274.914 12.556 275.832 13.164 276.685 14.252ZM274.477 15.308C273.901 15.3933 273.304 15.628 272.685 16.012C272.066 16.396 271.48 16.908 270.925 17.548C270.392 18.188 269.901 18.9347 269.453 19.788C269.005 20.6413 268.653 21.5587 268.397 22.54C270.104 21.6867 271.522 20.6413 272.653 19.404C273.784 18.1453 274.392 16.78 274.477 15.308ZM277.399 26.86C277.505 26.2413 277.687 25.4307 277.943 24.428C278.22 23.404 278.54 22.3267 278.903 21.196C279.265 20.044 279.649 18.892 280.055 17.74C280.46 16.588 280.855 15.5533 281.239 14.636C281.516 13.9747 281.761 13.4627 281.975 13.1C282.188 12.716 282.423 12.396 282.679 12.14C282.977 12.1827 283.287 12.2573 283.607 12.364C283.927 12.4707 284.236 12.5987 284.535 12.748C284.833 12.8973 285.1 13.0573 285.335 13.228C285.569 13.3773 285.751 13.5267 285.879 13.676C285.303 14.3587 284.791 15.1373 284.343 16.012C283.916 16.8867 283.479 18.0067 283.031 19.372C284.183 18.348 285.196 17.3667 286.071 16.428C286.967 15.4893 287.799 14.444 288.567 13.292C288.695 13.1853 288.919 13.132 289.239 13.132C289.537 13.132 289.825 13.1853 290.103 13.292C290.38 13.3773 290.572 13.5053 290.679 13.676C290.295 14.7 290.103 15.7133 290.103 16.716C290.103 17.6547 290.241 18.3587 290.519 18.828C290.497 18.956 290.348 19.2013 290.071 19.564C289.815 19.9267 289.527 20.268 289.207 20.588C288.631 20.2893 288.119 19.884 287.671 19.372C287.223 18.8387 286.892 18.2627 286.679 17.644C285.676 18.348 284.823 19.0413 284.119 19.724C283.415 20.3853 282.807 21.132 282.295 21.964C281.804 22.7747 281.377 23.7133 281.015 24.78C280.673 25.8467 280.343 27.116 280.023 28.588C279.831 28.5667 279.596 28.492 279.319 28.364C279.063 28.2573 278.796 28.1187 278.519 27.948C278.263 27.7773 278.028 27.596 277.815 27.404C277.601 27.212 277.463 27.0307 277.399 26.86ZM302.529 14.252C302.443 15.5747 302.209 16.716 301.825 17.676C301.441 18.6147 300.886 19.4467 300.161 20.172C299.457 20.876 298.593 21.516 297.569 22.092C296.545 22.668 295.35 23.2227 293.985 23.756C293.985 23.884 293.974 24.0227 293.953 24.172C293.953 24.3 293.953 24.4387 293.953 24.588C293.953 24.8653 293.974 25.1533 294.017 25.452C294.059 25.7507 294.134 26.028 294.241 26.284C294.347 26.54 294.497 26.7533 294.689 26.924C294.881 27.0733 295.126 27.148 295.425 27.148C296.001 27.148 296.566 27.02 297.121 26.764C297.675 26.508 298.198 26.1987 298.689 25.836C299.201 25.452 299.67 25.0467 300.097 24.62C300.545 24.172 300.939 23.7667 301.281 23.404C301.494 23.596 301.675 23.7773 301.825 23.948C300.865 25.228 299.809 26.2947 298.657 27.148C297.526 27.98 296.449 28.5133 295.425 28.748C293.953 28.5773 292.801 28.044 291.969 27.148C291.158 26.2307 290.753 25.132 290.753 23.852C290.753 22.9773 290.87 22.092 291.105 21.196C291.361 20.2787 291.702 19.404 292.129 18.572C292.577 17.7187 293.089 16.9187 293.665 16.172C294.262 15.4253 294.891 14.7747 295.553 14.22C296.235 13.6653 296.929 13.228 297.633 12.908C298.358 12.588 299.073 12.428 299.777 12.428C300.758 12.556 301.675 13.164 302.529 14.252ZM300.321 15.308C299.745 15.3933 299.147 15.628 298.529 16.012C297.91 16.396 297.323 16.908 296.769 17.548C296.235 18.188 295.745 18.9347 295.297 19.788C294.849 20.6413 294.497 21.5587 294.241 22.54C295.947 21.6867 297.366 20.6413 298.497 19.404C299.627 18.1453 300.235 16.78 300.321 15.308Z" fill="white"/>
<path d="M305.482 21.484C305.482 20.908 305.632 20.076 305.93 18.988C306.25 17.8787 306.656 16.6627 307.146 15.34C307.637 13.996 308.192 12.62 308.81 11.212C309.429 9.78267 310.048 8.44933 310.666 7.212C311.306 5.97467 311.914 4.908 312.49 4.012C313.066 3.09467 313.568 2.48667 313.994 2.188C314.336 2.252 314.698 2.412 315.082 2.668C315.488 2.90267 315.861 3.18 316.202 3.5C316.544 3.79866 316.842 4.11867 317.098 4.46C317.354 4.80133 317.504 5.1 317.546 5.356C316.458 6.252 315.381 7.372 314.314 8.716C313.248 10.0387 312.256 11.5107 311.338 13.132C310.442 14.7533 309.653 16.492 308.97 18.348C308.288 20.1827 307.776 22.06 307.434 23.98C307.178 23.916 306.922 23.8413 306.666 23.756C306.432 23.6493 306.229 23.5107 306.058 23.34C305.888 23.1693 305.749 22.9347 305.642 22.636C305.536 22.3373 305.482 21.9533 305.482 21.484ZM304.778 29.964C304.522 29.964 304.277 29.9 304.042 29.772C303.808 29.6653 303.594 29.5267 303.402 29.356C303.232 29.2067 303.093 29.036 302.986 28.844C302.88 28.6733 302.826 28.5347 302.826 28.428C302.826 28.172 302.858 27.8413 302.922 27.436C302.986 27.0307 303.082 26.6467 303.21 26.284C303.338 25.9 303.498 25.58 303.69 25.324C303.882 25.0467 304.096 24.908 304.33 24.908C304.928 24.908 305.525 25.1213 306.122 25.548C306.741 25.9533 307.2 26.412 307.498 26.924C307.242 27.2013 307.018 27.5107 306.826 27.852C306.634 28.2147 306.442 28.5453 306.25 28.844C306.058 29.164 305.845 29.4307 305.61 29.644C305.376 29.8573 305.098 29.964 304.778 29.964Z" fill="#E99F9F"/>
</svg>
