<svg width="47" height="47" viewBox="0 0 47 47" fill="none" xmlns="http://www.w3.org/2000/svg">
<path d="M10.1134 41.1485H6.39612V9.39712M10.1134 41.1485H15.5034M10.1134 41.1485V45.1175C10.1134 45.1175 10.094 45.5354 10.2993 45.7789C10.5046 46.0225 10.8569 45.9994 10.8569 45.9994H14.76C14.76 45.9994 14.9051 45.9941 15.1317 45.7789C15.4151 45.51 15.5034 44.897 15.5034 44.897V41.1485M15.5034 41.1485H32.0452M32.0452 41.1485H37.2494M32.0452 41.1485L32.0453 45.1175C32.0453 45.1175 32.0259 45.5354 32.2311 45.7789C32.4364 46.0226 32.7887 45.9994 32.7887 45.9994H36.506C36.506 45.9994 36.8583 46.0225 37.0636 45.7789C37.2494 45.5585 37.2494 44.897 37.2494 44.897V41.1485M37.2494 41.1485H40.7807V9.39712M27.0269 37.6206H19.9641M18.8489 34.0882H28.3279M6.39612 9.39712H2.493V12.4841M6.39612 9.39712V4.10522C6.39612 4.10522 6.42103 2.5322 7.13957 1.67977C7.85811 0.827331 8.9982 1.01828 8.9982 1.01828H38.1787C38.1787 1.01828 39.1329 1.04785 39.8514 1.90029C40.57 2.75272 40.7807 4.10522 40.7807 4.10522V9.39712M2.493 12.4841L1.74955 12.7046C1.74955 12.7046 1.39323 12.8829 1.19191 13.1456C0.94778 13.4642 1.00609 14.0276 1.00609 14.0276V18.658C1.00609 18.658 1.04333 19.3068 1.3779 19.7604C1.76027 20.2789 2.493 20.2014 2.493 20.2014C2.493 20.2014 3.22588 20.2789 3.60825 19.7604C3.94283 19.3068 3.9799 18.658 3.9799 18.658V14.0276C3.9799 14.0276 4.03813 13.4642 3.79399 13.1456C3.59268 12.8829 3.23645 12.7046 3.23645 12.7046L2.493 12.4841ZM15.1317 4.10522H32.0452M40.7807 9.39712H43.5687C43.5687 9.39712 44.2414 9.09268 44.498 9.39712C44.7546 9.70156 44.498 10.4996 44.498 10.4996V12.4841M44.498 12.4841L45.2415 12.7046C45.2415 12.7046 45.5156 12.744 45.799 13.1456C46.0786 13.5417 45.9849 14.248 45.9849 14.248V18.8785C45.9849 18.8785 45.9477 19.4297 45.6132 19.7604C45.3344 20.0361 44.9453 20.2014 44.9453 20.2014H44.3121C44.3121 20.2014 43.6394 20.0649 43.3828 19.7604C43.1262 19.456 43.0111 19.099 43.0111 19.099V14.248C43.0111 14.248 43.0111 13.3569 43.197 13.1456C43.413 12.8999 43.7546 12.7046 43.7546 12.7046L44.498 12.4841ZM15.5034 32.3287C15.5034 32.3287 15.6893 29.2418 12.7155 29.2418C10.1134 29.2418 10.1134 32.3287 10.1134 32.3287C10.1134 32.3287 10.1134 35.6361 12.7155 35.6361C15.5034 35.6361 15.5034 32.3287 15.5034 32.3287ZM9.36992 8.07417C8.95626 8.67397 8.9982 9.39712 8.9982 9.39712V22.8474C8.9982 22.8474 15.7801 26.1624 23.6814 25.9343C35.2049 25.6016 38.1787 22.8474 38.1787 22.8474V9.39712C38.1787 9.39712 38.0581 8.65021 37.6211 8.07417C37.1355 7.43413 36.32 7.41266 36.32 7.41266H11.0427C11.0427 7.41266 9.87552 7.34108 9.36992 8.07417ZM37.2494 32.3287C37.2494 32.3287 37.4353 29.2418 34.4615 29.2418C31.8593 29.2418 31.8593 32.3287 31.8593 32.3287C31.8593 32.3287 31.8593 35.6361 34.4615 35.6361C37.2494 35.6361 37.2494 32.3287 37.2494 32.3287Z" stroke="black" stroke-width="2" stroke-linecap="round"/>
</svg>
