<svg width="18" height="17" viewBox="0 0 18 17" fill="none" xmlns="http://www.w3.org/2000/svg">
<path d="M15.3 1.7H13.5V0.85C13.5 0.624566 13.4052 0.408365 13.2364 0.248959C13.0676 0.0895533 12.8387 0 12.6 0C12.3613 0 12.1324 0.0895533 11.9636 0.248959C11.7948 0.408365 11.7 0.624566 11.7 0.85V1.7H6.3V0.85C6.3 0.624566 6.20518 0.408365 6.0364 0.248959C5.86761 0.0895533 5.63869 0 5.4 0C5.1613 0 4.93239 0.0895533 4.7636 0.248959C4.59482 0.408365 4.5 0.624566 4.5 0.85V1.7H2.7C1.98392 1.7 1.29716 1.96866 0.790812 2.44688C0.284464 2.9251 0 3.5737 0 4.25V14.45C0 15.1263 0.284464 15.7749 0.790812 16.2531C1.29716 16.7313 1.98392 17 2.7 17H15.3C16.0161 17 16.7028 16.7313 17.2092 16.2531C17.7155 15.7749 18 15.1263 18 14.45V4.25C18 3.5737 17.7155 2.9251 17.2092 2.44688C16.7028 1.96866 16.0161 1.7 15.3 1.7ZM16.2 14.45C16.2 14.6754 16.1052 14.8916 15.9364 15.051C15.7676 15.2104 15.5387 15.3 15.3 15.3H2.7C2.46131 15.3 2.23239 15.2104 2.0636 15.051C1.89482 14.8916 1.8 14.6754 1.8 14.45V8.5H16.2V14.45ZM16.2 6.8H1.8V4.25C1.8 4.02457 1.89482 3.80837 2.0636 3.64896C2.23239 3.48955 2.46131 3.4 2.7 3.4H4.5V4.25C4.5 4.47543 4.59482 4.69163 4.7636 4.85104C4.93239 5.01045 5.1613 5.1 5.4 5.1C5.63869 5.1 5.86761 5.01045 6.0364 4.85104C6.20518 4.69163 6.3 4.47543 6.3 4.25V3.4H11.7V4.25C11.7 4.47543 11.7948 4.69163 11.9636 4.85104C12.1324 5.01045 12.3613 5.1 12.6 5.1C12.8387 5.1 13.0676 5.01045 13.2364 4.85104C13.4052 4.69163 13.5 4.47543 13.5 4.25V3.4H15.3C15.5387 3.4 15.7676 3.48955 15.9364 3.64896C16.1052 3.80837 16.2 4.02457 16.2 4.25V6.8Z" fill="black"/>
</svg>
