<svg width="47" height="37" viewBox="0 0 47 37" fill="none" xmlns="http://www.w3.org/2000/svg">
<path d="M6.99356 10.7818H39.5667M6.99356 10.7818L5.61724 12.0409M6.99356 10.7818L8.82867 6.67813M39.5667 10.7818L37.5022 6.16517M39.5667 10.7818L41.0681 12.0409M38.1904 30.7872C38.1904 30.7872 37.6749 34.2018 39.1082 35.4037C40.1832 36.3052 41.6312 35.9168 41.6312 35.9168C41.6312 35.9168 43.0798 36.3052 44.1547 35.4037C45.588 34.2018 45.072 30.7872 45.072 30.7872M38.1904 30.7872H36.814M38.1904 30.7872H45.072M1.94702 30.7872C1.94702 30.7872 1.43155 34.2018 2.86486 35.4037C3.93984 36.3052 5.38785 35.9168 5.38785 35.9168C5.38785 35.9168 7.29519 36.3052 8.37018 35.4037C9.80348 34.2018 8.82867 30.7872 8.82867 30.7872M1.94702 30.7872V15.3984L5.61724 12.0409M1.94702 30.7872H8.82867M8.82867 30.7872H10.205M10.205 30.7872H36.814M10.205 30.7872V27.1965C10.205 27.1965 10.7558 25.6869 11.5816 24.6316C12.5254 23.4255 13.8752 23.6058 13.8752 23.6058H32.685C32.685 23.6058 34.9068 23.7214 35.8968 25.1445C36.6667 26.2514 36.814 27.1965 36.814 27.1965V30.7872M5.61724 12.0409H3.32335C3.32335 12.0409 2.59424 11.9871 1.94689 11.2948C1.27011 10.5709 1.02947 9.35951 1.02947 9.35951C1.02947 9.35951 0.82601 7.93148 1.48828 7.19108C1.9471 6.67813 4.92907 6.67813 4.92907 6.67813H8.82867M8.82867 6.67813L9.97561 4.11334C9.97561 4.11334 10.4215 3.37428 11.1228 2.57479C12.7537 0.715549 17.0869 1.03545 17.0869 1.03545L29.0151 1.0358C29.0151 1.0358 33.6335 0.626669 35.438 2.57468C36.3026 3.50808 36.814 4.6263 36.814 4.6263L37.5022 6.16517M37.5022 6.16517H41.7459C41.7459 6.16517 44.9516 6.03055 45.5309 6.67812C46.1102 7.32569 45.9896 9.10303 45.9896 9.10303C45.9896 9.10303 45.821 10.5105 45.072 11.2948C44.3706 12.0292 43.5289 12.0409 43.5289 12.0409H41.0681M41.0681 12.0409L45.072 15.3984V30.7872M14.3341 20.528H6.53489C6.53489 20.528 5.34739 18.2644 5.15856 16.9373C4.86892 14.9017 9.83328 15.9834 12.0402 17.4503C14.1068 18.8238 14.3341 20.528 14.3341 20.528ZM32.6851 20.528H40.4843C40.4843 20.528 41.9566 18.4253 41.7459 16.9373C41.3317 14.0122 37.7317 15.3984 34.979 17.4503C32.2264 19.5021 32.6851 20.528 32.6851 20.528Z" stroke="black" stroke-width="2"/>
</svg>
