<svg width="30" height="28" viewBox="0 0 30 28" fill="none" xmlns="http://www.w3.org/2000/svg">
<path d="M28.5 16.1212C28.1022 16.1212 27.7206 16.2777 27.4393 16.5561C27.158 16.8346 27 17.2123 27 17.6061V23.5455C27 23.9393 26.842 24.3169 26.5607 24.5954C26.2794 24.8739 25.8978 25.0303 25.5 25.0303H4.5C4.10218 25.0303 3.72064 24.8739 3.43934 24.5954C3.15804 24.3169 3 23.9393 3 23.5455V17.6061C3 17.2123 2.84196 16.8346 2.56066 16.5561C2.27936 16.2777 1.89782 16.1212 1.5 16.1212C1.10218 16.1212 0.720644 16.2777 0.43934 16.5561C0.158035 16.8346 0 17.2123 0 17.6061V23.5455C0 24.7269 0.474106 25.8599 1.31802 26.6953C2.16193 27.5307 3.30653 28 4.5 28H25.5C26.6935 28 27.8381 27.5307 28.682 26.6953C29.5259 25.8599 30 24.7269 30 23.5455V17.6061C30 17.2123 29.842 16.8346 29.5607 16.5561C29.2794 16.2777 28.8978 16.1212 28.5 16.1212Z" fill="#AB0102" fill-opacity="0.7"/>
<path d="M13.9349 20.3573C14.0776 20.4925 14.2458 20.5984 14.4299 20.6691C14.6095 20.7476 14.8036 20.7882 14.9999 20.7882C15.1962 20.7882 15.3904 20.7476 15.5699 20.6691C15.754 20.5984 15.9223 20.4925 16.0649 20.3573L22.0649 14.4179C22.3474 14.1383 22.506 13.7591 22.506 13.3636C22.506 12.9682 22.3474 12.589 22.0649 12.3094C21.7825 12.0298 21.3994 11.8727 20.9999 11.8727C20.6005 11.8727 20.2174 12.0298 19.9349 12.3094L16.4999 15.7245V1.48485C16.4999 1.09104 16.3419 0.713365 16.0606 0.434902C15.7793 0.156439 15.3977 0 14.9999 0C14.6021 0 14.2206 0.156439 13.9393 0.434902C13.6579 0.713365 13.4999 1.09104 13.4999 1.48485V15.7245L10.0649 12.3094C9.92505 12.1709 9.75902 12.0611 9.57629 11.9862C9.39355 11.9113 9.1977 11.8727 8.99991 11.8727C8.80212 11.8727 8.60627 11.9113 8.42354 11.9862C8.24081 12.0611 8.07477 12.1709 7.93491 12.3094C7.79505 12.4478 7.68411 12.6122 7.60842 12.7931C7.53273 12.974 7.49377 13.1678 7.49377 13.3636C7.49377 13.5594 7.53273 13.7533 7.60842 13.9342C7.68411 14.1151 7.79505 14.2794 7.93491 14.4179L13.9349 20.3573Z" fill="#AB0102" fill-opacity="0.7"/>
</svg>
