<svg width="35" height="35" viewBox="0 0 35 35" fill="none" xmlns="http://www.w3.org/2000/svg">
<path d="M11.0075 16.2575C10.8482 16.4239 10.7233 16.6202 10.64 16.835C10.465 17.2611 10.465 17.7389 10.64 18.165C10.7233 18.3798 10.8482 18.5761 11.0075 18.7425L16.2575 23.9925C16.587 24.322 17.034 24.5072 17.5 24.5072C17.966 24.5072 18.413 24.322 18.7425 23.9925C19.072 23.663 19.2572 23.216 19.2572 22.75C19.2572 22.284 19.072 21.837 18.7425 21.5075L16.4675 19.25H22.75C23.2141 19.25 23.6592 19.0656 23.9874 18.7374C24.3156 18.4092 24.5 17.9641 24.5 17.5C24.5 17.0359 24.3156 16.5907 23.9874 16.2626C23.6592 15.9344 23.2141 15.75 22.75 15.75H16.4675L18.7425 13.4925C18.9065 13.3298 19.0367 13.1363 19.1256 12.923C19.2144 12.7098 19.2601 12.481 19.2601 12.25C19.2601 12.019 19.2144 11.7902 19.1256 11.577C19.0367 11.3637 18.9065 11.1702 18.7425 11.0075C18.5798 10.8435 18.3863 10.7133 18.173 10.6244C17.9598 10.5356 17.731 10.4899 17.5 10.4899C17.269 10.4899 17.0402 10.5356 16.827 10.6244C16.6137 10.7133 16.4202 10.8435 16.2575 11.0075L11.0075 16.2575ZM0 17.5C0 20.9612 1.02636 24.3446 2.94928 27.2225C4.87221 30.1003 7.60533 32.3434 10.803 33.6679C14.0007 34.9924 17.5194 35.339 20.9141 34.6637C24.3087 33.9885 27.4269 32.3218 29.8744 29.8744C32.3218 27.4269 33.9885 24.3087 34.6637 20.9141C35.339 17.5194 34.9924 14.0007 33.6679 10.803C32.3434 7.60533 30.1003 4.87221 27.2225 2.94928C24.3446 1.02636 20.9612 0 17.5 0C15.2019 0 12.9262 0.452651 10.803 1.33211C8.67984 2.21157 6.75066 3.50061 5.12563 5.12563C1.84374 8.40752 0 12.8587 0 17.5ZM31.5 17.5C31.5 20.2689 30.6789 22.9757 29.1406 25.278C27.6022 27.5803 25.4157 29.3747 22.8576 30.4343C20.2994 31.4939 17.4845 31.7712 14.7687 31.231C12.053 30.6908 9.55844 29.3574 7.6005 27.3995C5.64257 25.4416 4.3092 22.947 3.76901 20.2313C3.22881 17.5155 3.50606 14.7006 4.56569 12.1424C5.62531 9.58426 7.41973 7.39776 9.72201 5.85942C12.0243 4.32108 14.7311 3.5 17.5 3.5C21.213 3.5 24.774 4.97499 27.3995 7.6005C30.025 10.226 31.5 13.787 31.5 17.5Z" fill="black"/>
</svg>
