<svg width="31" height="30" viewBox="0 0 31 30" fill="none" xmlns="http://www.w3.org/2000/svg">
<path d="M26.2988 3H23.2988V1.5C23.2988 1.10218 23.1408 0.720644 22.8595 0.43934C22.5782 0.158035 22.1967 0 21.7988 0C21.401 0 21.0195 0.158035 20.7382 0.43934C20.4569 0.720644 20.2988 1.10218 20.2988 1.5V3H11.2988V1.5C11.2988 1.10218 11.1408 0.720644 10.8595 0.43934C10.5782 0.158035 10.1967 0 9.79883 0C9.401 0 9.01947 0.158035 8.73817 0.43934C8.45686 0.720644 8.29883 1.10218 8.29883 1.5V3H5.29883C4.10535 3 2.96076 3.47411 2.11685 4.31802C1.27293 5.16193 0.798828 6.30653 0.798828 7.5V25.5C0.798828 26.6935 1.27293 27.8381 2.11685 28.682C2.96076 29.5259 4.10535 30 5.29883 30H26.2988C27.4923 30 28.6369 29.5259 29.4808 28.682C30.3247 27.8381 30.7988 26.6935 30.7988 25.5V7.5C30.7988 6.30653 30.3247 5.16193 29.4808 4.31802C28.6369 3.47411 27.4923 3 26.2988 3ZM27.7988 25.5C27.7988 25.8978 27.6408 26.2794 27.3595 26.5607C27.0782 26.842 26.6967 27 26.2988 27H5.29883C4.901 27 4.51947 26.842 4.23817 26.5607C3.95686 26.2794 3.79883 25.8978 3.79883 25.5V15H27.7988V25.5ZM27.7988 12H3.79883V7.5C3.79883 7.10218 3.95686 6.72064 4.23817 6.43934C4.51947 6.15804 4.901 6 5.29883 6H8.29883V7.5C8.29883 7.89782 8.45686 8.27936 8.73817 8.56066C9.01947 8.84196 9.401 9 9.79883 9C10.1967 9 10.5782 8.84196 10.8595 8.56066C11.1408 8.27936 11.2988 7.89782 11.2988 7.5V6H20.2988V7.5C20.2988 7.89782 20.4569 8.27936 20.7382 8.56066C21.0195 8.84196 21.401 9 21.7988 9C22.1967 9 22.5782 8.84196 22.8595 8.56066C23.1408 8.27936 23.2988 7.89782 23.2988 7.5V6H26.2988C26.6967 6 27.0782 6.15804 27.3595 6.43934C27.6408 6.72064 27.7988 7.10218 27.7988 7.5V12Z" fill="#5E5E5E"/>
</svg>
