<svg width="173" height="40" viewBox="0 0 173 40" fill="none" xmlns="http://www.w3.org/2000/svg">
<path d="M13.7664 13.8951C14.4704 13.8951 15.0144 14.0871 15.3984 14.4711C15.8037 14.8551 16.0064 15.3884 16.0064 16.0711C16.0064 16.2418 15.985 16.4231 15.9424 16.6151C15.921 16.7858 15.889 16.9351 15.8464 17.0631C15.569 17.0204 15.2597 16.9884 14.9184 16.9671C14.577 16.9244 14.1717 16.9031 13.7024 16.9031C12.785 16.9031 11.857 16.9884 10.9184 17.1591C9.97969 17.3084 9.08369 17.4364 8.23036 17.5431C7.73969 18.6738 7.29169 19.7724 6.88636 20.8391C6.48103 21.8844 6.12903 22.8444 5.83036 23.7191C5.55303 24.5938 5.32903 25.3511 5.15836 25.9911C5.00903 26.6311 4.92369 27.1111 4.90236 27.4311C6.63036 27.0684 8.36903 26.7591 10.1184 26.5031C11.889 26.2471 13.745 26.0551 15.6864 25.9271C15.921 26.2898 16.113 26.6844 16.2624 27.1111C16.433 27.5378 16.5184 27.9964 16.5184 28.4871C16.5184 28.6151 16.5184 28.7538 16.5184 28.9031C16.5184 29.0524 16.497 29.2018 16.4544 29.3511C15.857 29.3298 15.2277 29.3084 14.5664 29.2871C13.905 29.2871 13.041 29.2871 11.9744 29.2871C11.2704 29.2871 10.5984 29.2978 9.95836 29.3191C9.33969 29.3618 8.71036 29.4151 8.07036 29.4791C7.43036 29.5431 6.74769 29.6284 6.02236 29.7351C5.31836 29.8418 4.51836 29.9698 3.62236 30.1191C2.64103 29.7351 1.69169 28.7964 0.774359 27.3031C1.13703 26.5351 1.63836 25.3724 2.27836 23.8151C2.93969 22.2364 3.77169 20.1351 4.77436 17.5111C3.81436 17.2124 3.18503 16.6791 2.88636 15.9111C2.99303 15.8044 3.30236 15.6764 3.81436 15.5271C4.32636 15.3564 4.95569 15.1858 5.70236 15.0151C6.02236 14.1831 6.28903 13.4578 6.50236 12.8391C6.73703 12.2204 6.93969 11.6444 7.11036 11.1111C7.28103 10.5564 7.43036 10.0231 7.55836 9.5111C7.70769 8.97777 7.84636 8.40177 7.97436 7.7831C7.22769 7.74043 6.64103 7.53777 6.21436 7.1751C5.78769 6.7911 5.57436 6.30043 5.57436 5.7031C5.57436 5.53243 5.59569 5.32976 5.63836 5.0951C5.70236 4.86043 5.76636 4.65777 5.83036 4.4871C6.25703 4.5511 6.66236 4.59377 7.04636 4.6151C7.45169 4.63643 7.97436 4.6471 8.61436 4.6471C9.95836 4.6471 11.217 4.6151 12.3904 4.5511C13.5637 4.46576 14.6197 4.38043 15.5584 4.2951C16.5184 4.20977 17.3397 4.1351 18.0224 4.0711C18.705 3.98576 19.2277 3.9431 19.5904 3.9431C20.081 3.9431 20.5184 4.1991 20.9024 4.7111C21.2864 5.2231 21.5744 5.94843 21.7664 6.8871C21.105 6.8231 20.561 6.78043 20.1344 6.7591C19.729 6.73776 19.3664 6.7271 19.0464 6.7271C17.873 6.7271 16.7957 6.7911 15.8144 6.9191C14.8544 7.02576 13.9264 7.1431 13.0304 7.2711C12.9024 7.4631 12.753 7.70843 12.5824 8.0071C12.433 8.30577 12.2304 8.72177 11.9744 9.2551C11.7184 9.78843 11.3984 10.4604 11.0144 11.2711C10.6517 12.0818 10.2037 13.0951 9.67036 14.3111C10.481 14.1831 11.2384 14.0871 11.9424 14.0231C12.6677 13.9378 13.2757 13.8951 13.7664 13.8951ZM29.8744 27.3351C29.6397 27.6978 29.2664 27.9858 28.7544 28.1991C28.2637 28.4338 27.7944 28.5724 27.3464 28.6151C26.9837 28.1884 26.5784 27.6124 26.1304 26.8871C25.6824 26.1404 25.2557 25.2764 24.8504 24.2951C23.7624 25.2764 22.6744 26.1724 21.5864 26.9831C20.4984 27.7724 19.485 28.4444 18.5464 28.9991C18.3117 28.9564 18.1197 28.8284 17.9704 28.6151C17.821 28.4018 17.7357 28.1244 17.7144 27.7831C18.141 27.5484 18.6424 27.2391 19.2184 26.8551C19.8157 26.4711 20.413 26.0551 21.0104 25.6071C21.629 25.1378 22.2157 24.6578 22.7704 24.1671C23.3464 23.6551 23.837 23.1644 24.2424 22.6951C23.8797 21.8418 23.5384 20.9671 23.2184 20.0711C22.9197 19.1538 22.653 18.2791 22.4184 17.4471C22.205 16.5938 22.0344 15.8258 21.9064 15.1431C21.7784 14.4391 21.7144 13.8738 21.7144 13.4471C21.7144 13.1484 21.7464 12.9564 21.8104 12.8711C21.8957 12.7644 22.077 12.7111 22.3544 12.7111C22.5677 12.7111 22.8237 12.7324 23.1224 12.7751C23.4424 12.8178 23.7624 12.8711 24.0824 12.9351C24.4024 12.9991 24.7224 13.0738 25.0424 13.1591C25.3624 13.2231 25.6397 13.2978 25.8744 13.3831C25.8317 13.6178 25.8104 13.8204 25.8104 13.9911C25.8104 14.1618 25.8104 14.4071 25.8104 14.7271C25.8104 15.5591 25.8744 16.4124 26.0024 17.2871C26.1517 18.1404 26.3864 19.0684 26.7064 20.0711C27.581 19.0684 28.3917 17.9591 29.1384 16.7431C29.885 15.5058 30.6424 14.0338 31.4104 12.3271C31.9437 12.4338 32.4024 12.5938 32.7864 12.8071C33.1704 12.9991 33.4157 13.2124 33.5224 13.4471C33.2877 14.4284 32.6264 15.6658 31.5384 17.1591C30.4504 18.6524 29.0637 20.2418 27.3784 21.9271C27.677 22.7378 28.0397 23.6018 28.4664 24.5191C28.893 25.4151 29.3624 26.3538 29.8744 27.3351ZM31.2114 38.1191C30.9127 38.0338 30.742 37.7138 30.6994 37.1591C30.614 36.8818 30.55 36.5511 30.5074 36.1671C30.486 35.7831 30.4754 35.3458 30.4754 34.8551C30.4754 34.4071 30.55 33.7884 30.6994 32.9991C30.8487 32.2311 31.0514 31.3564 31.3074 30.3751C31.5847 29.3938 31.9154 28.3378 32.2994 27.2071C32.6834 26.0551 33.11 24.8924 33.5794 23.7191C34.1554 22.2471 34.6567 20.9778 35.0834 19.9111C35.51 18.8231 35.862 17.8844 36.1394 17.0951C36.438 16.3058 36.6727 15.6551 36.8434 15.1431C37.0354 14.6311 37.1847 14.1938 37.2914 13.8311C37.3767 13.5751 37.5047 13.2658 37.6754 12.9031C37.846 12.5404 38.038 12.1778 38.2514 11.8151C38.486 11.4311 38.7207 11.0791 38.9554 10.7591C39.19 10.4178 39.4034 10.1618 39.5954 9.9911C40.342 10.0978 41.046 10.2898 41.7074 10.5671C42.3687 10.8444 42.774 11.1111 42.9234 11.3671C42.6247 11.6444 42.2834 12.0818 41.8994 12.6791C41.5154 13.2551 41.142 13.8951 40.7794 14.5991C40.4167 15.2818 40.086 15.9858 39.7874 16.7111C39.4887 17.4364 39.2647 18.0764 39.1154 18.6311C39.3287 18.2684 39.606 17.8738 39.9474 17.4471C40.2887 17.0204 40.8114 16.4338 41.5154 15.6871C42.3047 14.8764 43.0407 14.2578 43.7234 13.8311C44.4274 13.3831 45.0354 13.1591 45.5474 13.1591C46.358 13.1591 47.0194 13.3831 47.5314 13.8311C48.0647 14.2791 48.3314 14.8551 48.3314 15.5591C48.3314 17.0951 48.0754 18.6204 47.5634 20.1351C47.0514 21.6284 46.3154 22.9831 45.3554 24.1991C44.9927 24.6684 44.566 25.1164 44.0754 25.5431C43.5847 25.9698 43.0727 26.3538 42.5394 26.6951C42.006 27.0151 41.4834 27.2711 40.9714 27.4631C40.4594 27.6551 40.0007 27.7511 39.5954 27.7511C39.2114 27.7511 38.87 27.6764 38.5714 27.5271C38.294 27.3564 38.102 27.1538 37.9954 26.9191C38.8274 26.4284 39.638 25.7458 40.4274 24.8711C41.2167 23.9964 41.942 22.9938 42.6034 21.8631C43.286 20.7111 43.8727 19.4738 44.3634 18.1511C44.8754 16.8284 45.2594 15.4844 45.5154 14.1191C44.7047 14.5458 43.9687 15.0151 43.3074 15.5271C42.6674 16.0178 42.0274 16.6684 41.3874 17.4791C40.6194 18.4178 40.0114 19.1751 39.5634 19.7511C39.1154 20.3271 38.742 20.8178 38.4434 21.2231C38.166 21.6284 37.9314 22.0124 37.7394 22.3751C37.5687 22.7164 37.3767 23.1431 37.1634 23.6551C36.8647 24.3378 36.5127 25.2444 36.1074 26.3751C35.7234 27.4844 35.318 28.7324 34.8914 30.1191C34.486 31.5058 34.07 32.9778 33.6434 34.5351C33.238 36.1138 32.8434 37.6818 32.4594 39.2391C32.2247 39.1964 32.022 39.0258 31.8514 38.7271C31.6807 38.5351 31.5527 38.3964 31.4674 38.3111C31.4034 38.2258 31.318 38.1618 31.2114 38.1191ZM49.4529 25.4791C49.4529 24.5404 49.6769 23.2284 50.1249 21.5431C50.5729 19.8364 51.2022 17.8524 52.0129 15.5911C53.3355 11.9858 54.5729 8.98843 55.7249 6.5991C56.8982 4.18843 58.0395 2.3111 59.1489 0.967098C59.4049 1.00976 59.7142 1.11643 60.0769 1.2871C60.4609 1.45776 60.8342 1.64977 61.1969 1.8631C61.5595 2.0551 61.8795 2.25776 62.1569 2.4711C62.4555 2.68443 62.6475 2.8551 62.7329 2.9831C61.0689 4.94577 59.6075 7.05777 58.3489 9.3191C57.0902 11.5804 55.9382 14.1724 54.8929 17.0951C53.9969 19.6124 53.3142 21.8844 52.8449 23.9111C52.3755 25.9164 52.1409 27.5911 52.1409 28.9351C52.1409 29.2978 52.1409 29.5218 52.1409 29.6071C52.1409 29.6924 52.1515 29.7778 52.1729 29.8631C51.8742 29.8204 51.6182 29.7458 51.4049 29.6391C51.1915 29.5324 51.0529 29.4044 50.9889 29.2551C50.9462 29.1484 50.8289 28.9884 50.6369 28.7751C50.4449 28.5831 50.2742 28.4338 50.1249 28.3271C49.9329 28.1991 49.7729 27.8684 49.6449 27.3351C49.5169 26.7804 49.4529 26.1618 49.4529 25.4791ZM60.6984 28.6471C59.4824 28.5191 58.5117 27.9858 57.7864 27.0471C57.061 26.1084 56.6984 24.9138 56.6984 23.4631C56.6984 22.6098 56.8264 21.7244 57.0824 20.8071C57.3384 19.8898 57.701 19.0044 58.1704 18.1511C58.6397 17.2764 59.1944 16.4551 59.8344 15.6871C60.4744 14.9191 61.1677 14.2578 61.9144 13.7031C63.0877 12.8284 64.1864 12.3911 65.2104 12.3911C65.893 12.7538 66.565 13.5111 67.2264 14.6631C67.333 14.6631 67.429 14.6631 67.5144 14.6631C67.5997 14.6418 67.6957 14.6311 67.8024 14.6311C68.933 14.6311 69.4984 15.6338 69.4984 17.6391C69.4984 18.9831 69.2744 20.2631 68.8264 21.4791C68.3997 22.6738 67.7917 23.7618 67.0024 24.7431C66.2344 25.7244 65.3064 26.5564 64.2184 27.2391C63.1517 27.9004 61.9784 28.3698 60.6984 28.6471ZM62.3304 18.5671C61.9677 19.0578 61.6264 19.5911 61.3064 20.1671C60.9864 20.7431 60.709 21.3298 60.4744 21.9271C60.2397 22.5031 60.0584 23.0684 59.9304 23.6231C59.8024 24.1564 59.7384 24.6364 59.7384 25.0631C59.7384 25.5751 59.8237 26.0658 59.9944 26.5351C60.165 27.0044 60.357 27.2711 60.5704 27.3351C61.5304 27.1218 62.405 26.7271 63.1944 26.1511C64.005 25.5538 64.6984 24.8178 65.2744 23.9431C65.8717 23.0684 66.3304 22.0764 66.6504 20.9671C66.9917 19.8578 67.1624 18.6738 67.1624 17.4151C67.1624 16.8604 67.1304 16.4231 67.0664 16.1031C67.0024 15.7831 66.8957 15.5058 66.7464 15.2711C65.8077 15.5484 64.965 15.9964 64.2184 16.6151C63.493 17.2338 62.8637 17.8844 62.3304 18.5671ZM70.2794 26.8871C70.386 26.2684 70.5674 25.4578 70.8234 24.4551C71.1007 23.4311 71.4207 22.3538 71.7834 21.2231C72.146 20.0711 72.53 18.9191 72.9354 17.7671C73.3407 16.6151 73.7354 15.5804 74.1194 14.6631C74.3967 14.0018 74.642 13.4898 74.8554 13.1271C75.0687 12.7431 75.3034 12.4231 75.5594 12.1671C75.858 12.2098 76.1674 12.2844 76.4874 12.3911C76.8074 12.4978 77.1167 12.6258 77.4154 12.7751C77.714 12.9244 77.9807 13.0844 78.2154 13.2551C78.45 13.4044 78.6314 13.5538 78.7594 13.7031C78.1834 14.3858 77.6714 15.1644 77.2234 16.0391C76.7967 16.9138 76.3594 18.0338 75.9114 19.3991C77.0634 18.3751 78.0767 17.3938 78.9514 16.4551C79.8474 15.5164 80.6794 14.4711 81.4474 13.3191C81.5754 13.2124 81.7994 13.1591 82.1194 13.1591C82.418 13.1591 82.706 13.2124 82.9834 13.3191C83.2607 13.4044 83.4527 13.5324 83.5594 13.7031C83.1754 14.7271 82.9834 15.7404 82.9834 16.7431C82.9834 17.6818 83.122 18.3858 83.3994 18.8551C83.378 18.9831 83.2287 19.2284 82.9514 19.5911C82.6954 19.9538 82.4074 20.2951 82.0874 20.6151C81.5114 20.3164 80.9994 19.9111 80.5514 19.3991C80.1034 18.8658 79.7727 18.2898 79.5594 17.6711C78.5567 18.3751 77.7034 19.0684 76.9994 19.7511C76.2954 20.4124 75.6874 21.1591 75.1754 21.9911C74.6847 22.8018 74.258 23.7404 73.8954 24.8071C73.554 25.8738 73.2234 27.1431 72.9034 28.6151C72.7114 28.5938 72.4767 28.5191 72.1994 28.3911C71.9434 28.2844 71.6767 28.1458 71.3994 27.9751C71.1434 27.8044 70.9087 27.6231 70.6954 27.4311C70.482 27.2391 70.3434 27.0578 70.2794 26.8871ZM95.4096 14.2791C95.3243 15.6018 95.0896 16.7431 94.7056 17.7031C94.3216 18.6418 93.7669 19.4738 93.0416 20.1991C92.3376 20.9031 91.4736 21.5431 90.4496 22.1191C89.4256 22.6951 88.2309 23.2498 86.8656 23.7831C86.8656 23.9111 86.8549 24.0498 86.8336 24.1991C86.8336 24.3271 86.8336 24.4658 86.8336 24.6151C86.8336 24.8924 86.8549 25.1804 86.8976 25.4791C86.9403 25.7778 87.0149 26.0551 87.1216 26.3111C87.2283 26.5671 87.3776 26.7804 87.5696 26.9511C87.7616 27.1004 88.0069 27.1751 88.3056 27.1751C88.8816 27.1751 89.4469 27.0471 90.0016 26.7911C90.5563 26.5351 91.0789 26.2258 91.5696 25.8631C92.0816 25.4791 92.5509 25.0738 92.9776 24.6471C93.4256 24.1991 93.8203 23.7938 94.1616 23.4311C94.3749 23.6231 94.5563 23.8044 94.7056 23.9751C93.7456 25.2551 92.6896 26.3218 91.5376 27.1751C90.4069 28.0071 89.3296 28.5404 88.3056 28.7751C86.8336 28.6044 85.6816 28.0711 84.8496 27.1751C84.0389 26.2578 83.6336 25.1591 83.6336 23.8791C83.6336 23.0044 83.7509 22.1191 83.9856 21.2231C84.2416 20.3058 84.5829 19.4311 85.0096 18.5991C85.4576 17.7458 85.9696 16.9458 86.5456 16.1991C87.1429 15.4524 87.7723 14.8018 88.4336 14.2471C89.1163 13.6924 89.8096 13.2551 90.5136 12.9351C91.2389 12.6151 91.9536 12.4551 92.6576 12.4551C93.6389 12.5831 94.5563 13.1911 95.4096 14.2791ZM93.2016 15.3351C92.6256 15.4204 92.0283 15.6551 91.4096 16.0391C90.7909 16.4231 90.2043 16.9351 89.6496 17.5751C89.1163 18.2151 88.6256 18.9618 88.1776 19.8151C87.7296 20.6684 87.3776 21.5858 87.1216 22.5671C88.8283 21.7138 90.2469 20.6684 91.3776 19.4311C92.5083 18.1724 93.1163 16.8071 93.2016 15.3351ZM117.86 29.8951C117.817 29.9164 117.775 29.9271 117.732 29.9271C117.689 29.9271 117.604 29.9271 117.476 29.9271C117.177 29.9271 116.825 29.8738 116.42 29.7671C116.036 29.6818 115.652 29.5644 115.268 29.4151C114.905 29.2871 114.585 29.1378 114.308 28.9671C114.052 28.7964 113.892 28.6471 113.828 28.5191C113.807 28.2204 113.796 27.9111 113.796 27.5911C113.796 27.2711 113.796 26.9618 113.796 26.6631C113.796 24.2738 113.967 21.7778 114.308 19.1751C114.671 16.5724 115.257 13.7564 116.068 10.7271C116.153 10.4284 116.239 10.0551 116.324 9.6071C116.431 9.13777 116.537 8.63643 116.644 8.1031C116.132 8.50843 115.524 9.1591 114.82 10.0551C114.116 10.9298 113.369 11.9751 112.58 13.1911C111.812 14.3858 111.033 15.7084 110.244 17.1591C109.476 18.5884 108.772 20.0498 108.132 21.5431C107.492 23.0151 106.937 24.4764 106.468 25.9271C106.02 27.3778 105.743 28.7218 105.636 29.9591C104.612 29.6604 103.897 29.3618 103.492 29.0631C103.108 28.7644 102.916 28.4018 102.916 27.9751C102.916 27.5911 103.033 27.0471 103.268 26.3431C103.503 25.6391 103.833 24.8071 104.26 23.8471C104.687 22.8871 105.209 21.8204 105.828 20.6471C106.447 19.4524 107.129 18.1724 107.876 16.8071C108.729 15.2498 109.561 13.7884 110.372 12.4231C111.204 11.0578 112.015 9.82043 112.804 8.7111C113.593 7.60177 114.361 6.64176 115.108 5.8311C115.876 5.02043 116.633 4.40177 117.38 3.9751C117.679 3.9751 118.073 4.04976 118.564 4.1991C119.076 4.34843 119.567 4.52976 120.036 4.7431C120.527 4.95643 120.953 5.18043 121.316 5.4151C121.7 5.62843 121.913 5.80976 121.956 5.9591C121.657 6.55643 121.305 7.45243 120.9 8.6471C120.495 9.84177 120.079 11.1964 119.652 12.7111C119.247 14.2258 118.852 15.8364 118.468 17.5431C118.105 19.2284 117.817 20.8498 117.604 22.4071C118.095 21.2338 118.66 20.0178 119.3 18.7591C119.961 17.4791 120.655 16.2204 121.38 14.9831C122.105 13.7244 122.841 12.5084 123.588 11.3351C124.356 10.1618 125.103 9.0951 125.828 8.1351C126.553 7.15377 127.225 6.30043 127.844 5.5751C128.484 4.84977 129.049 4.31643 129.54 3.9751C129.839 3.9751 130.233 4.04976 130.724 4.1991C131.236 4.34843 131.727 4.52976 132.196 4.7431C132.687 4.95643 133.113 5.18043 133.476 5.4151C133.86 5.62843 134.073 5.80976 134.116 5.9591C133.433 7.1751 132.836 8.65777 132.324 10.4071C131.812 12.1564 131.375 13.9911 131.012 15.9111C130.671 17.8311 130.404 19.7404 130.212 21.6391C130.041 23.5164 129.956 25.2018 129.956 26.6951C129.956 27.1858 129.956 27.6978 129.956 28.2311C129.956 28.7644 129.977 29.3191 130.02 29.8951C129.721 29.8951 129.359 29.8524 128.932 29.7671C128.527 29.7031 128.121 29.6071 127.716 29.4791C127.332 29.3511 126.98 29.2018 126.66 29.0311C126.34 28.8818 126.116 28.7111 125.988 28.5191C125.967 28.2204 125.956 27.9111 125.956 27.5911C125.956 27.2711 125.956 26.9618 125.956 26.6631C125.956 24.2738 126.127 21.7778 126.468 19.1751C126.831 16.5724 127.417 13.7564 128.228 10.7271C128.313 10.4284 128.409 10.0231 128.516 9.5111C128.623 8.9991 128.729 8.46577 128.836 7.9111C128.239 8.20977 127.556 8.78577 126.788 9.6391C126.041 10.4711 125.273 11.4951 124.484 12.7111C123.716 13.9058 122.948 15.2391 122.18 16.7111C121.433 18.1831 120.751 19.6871 120.132 21.2231C119.535 22.7378 119.023 24.2524 118.596 25.7671C118.191 27.2604 117.945 28.6364 117.86 29.8951ZM137.573 28.6471C136.357 28.5191 135.387 27.9858 134.661 27.0471C133.936 26.1084 133.573 24.9138 133.573 23.4631C133.573 22.6098 133.701 21.7244 133.957 20.8071C134.213 19.8898 134.576 19.0044 135.045 18.1511C135.515 17.2764 136.069 16.4551 136.709 15.6871C137.349 14.9191 138.043 14.2578 138.789 13.7031C139.963 12.8284 141.061 12.3911 142.085 12.3911C142.768 12.7538 143.44 13.5111 144.101 14.6631C144.208 14.6631 144.304 14.6631 144.389 14.6631C144.475 14.6418 144.571 14.6311 144.677 14.6311C145.808 14.6311 146.373 15.6338 146.373 17.6391C146.373 18.9831 146.149 20.2631 145.701 21.4791C145.275 22.6738 144.667 23.7618 143.877 24.7431C143.109 25.7244 142.181 26.5564 141.093 27.2391C140.027 27.9004 138.853 28.3698 137.573 28.6471ZM139.205 18.5671C138.843 19.0578 138.501 19.5911 138.181 20.1671C137.861 20.7431 137.584 21.3298 137.349 21.9271C137.115 22.5031 136.933 23.0684 136.805 23.6231C136.677 24.1564 136.613 24.6364 136.613 25.0631C136.613 25.5751 136.699 26.0658 136.869 26.5351C137.04 27.0044 137.232 27.2711 137.445 27.3351C138.405 27.1218 139.28 26.7271 140.069 26.1511C140.88 25.5538 141.573 24.8178 142.149 23.9431C142.747 23.0684 143.205 22.0764 143.525 20.9671C143.867 19.8578 144.037 18.6738 144.037 17.4151C144.037 16.8604 144.005 16.4231 143.941 16.1031C143.877 15.7831 143.771 15.5058 143.621 15.2711C142.683 15.5484 141.84 15.9964 141.093 16.6151C140.368 17.2338 139.739 17.8844 139.205 18.5671ZM147.154 26.8871C147.261 26.2684 147.442 25.4578 147.698 24.4551C147.976 23.4311 148.296 22.3538 148.658 21.2231C149.021 20.0711 149.405 18.9191 149.81 17.7671C150.216 16.6151 150.61 15.5804 150.994 14.6631C151.272 14.0018 151.517 13.4898 151.73 13.1271C151.944 12.7431 152.178 12.4231 152.434 12.1671C152.733 12.2098 153.042 12.2844 153.362 12.3911C153.682 12.4978 153.992 12.6258 154.29 12.7751C154.589 12.9244 154.856 13.0844 155.09 13.2551C155.325 13.4044 155.506 13.5538 155.634 13.7031C155.058 14.3858 154.546 15.1644 154.098 16.0391C153.672 16.9138 153.234 18.0338 152.786 19.3991C153.938 18.3751 154.952 17.3938 155.826 16.4551C156.722 15.5164 157.554 14.4711 158.322 13.3191C158.45 13.2124 158.674 13.1591 158.994 13.1591C159.293 13.1591 159.581 13.2124 159.858 13.3191C160.136 13.4044 160.328 13.5324 160.434 13.7031C160.05 14.7271 159.858 15.7404 159.858 16.7431C159.858 17.6818 159.997 18.3858 160.274 18.8551C160.253 18.9831 160.104 19.2284 159.826 19.5911C159.57 19.9538 159.282 20.2951 158.962 20.6151C158.386 20.3164 157.874 19.9111 157.426 19.3991C156.978 18.8658 156.648 18.2898 156.434 17.6711C155.432 18.3751 154.578 19.0684 153.874 19.7511C153.17 20.4124 152.562 21.1591 152.05 21.9911C151.56 22.8018 151.133 23.7404 150.77 24.8071C150.429 25.8738 150.098 27.1431 149.778 28.6151C149.586 28.5938 149.352 28.5191 149.074 28.3911C148.818 28.2844 148.552 28.1458 148.274 27.9751C148.018 27.8044 147.784 27.6231 147.57 27.4311C147.357 27.2391 147.218 27.0578 147.154 26.8871ZM172.285 14.2791C172.199 15.6018 171.965 16.7431 171.581 17.7031C171.197 18.6418 170.642 19.4738 169.917 20.1991C169.213 20.9031 168.349 21.5431 167.325 22.1191C166.301 22.6951 165.106 23.2498 163.741 23.7831C163.741 23.9111 163.73 24.0498 163.709 24.1991C163.709 24.3271 163.709 24.4658 163.709 24.6151C163.709 24.8924 163.73 25.1804 163.773 25.4791C163.815 25.7778 163.89 26.0551 163.997 26.3111C164.103 26.5671 164.253 26.7804 164.445 26.9511C164.637 27.1004 164.882 27.1751 165.181 27.1751C165.757 27.1751 166.322 27.0471 166.877 26.7911C167.431 26.5351 167.954 26.2258 168.445 25.8631C168.957 25.4791 169.426 25.0738 169.853 24.6471C170.301 24.1991 170.695 23.7938 171.037 23.4311C171.25 23.6231 171.431 23.8044 171.581 23.9751C170.621 25.2551 169.565 26.3218 168.413 27.1751C167.282 28.0071 166.205 28.5404 165.181 28.7751C163.709 28.6044 162.557 28.0711 161.725 27.1751C160.914 26.2578 160.509 25.1591 160.509 23.8791C160.509 23.0044 160.626 22.1191 160.861 21.2231C161.117 20.3058 161.458 19.4311 161.885 18.5991C162.333 17.7458 162.845 16.9458 163.421 16.1991C164.018 15.4524 164.647 14.8018 165.309 14.2471C165.991 13.6924 166.685 13.2551 167.389 12.9351C168.114 12.6151 168.829 12.4551 169.533 12.4551C170.514 12.5831 171.431 13.1911 172.285 14.2791ZM170.077 15.3351C169.501 15.4204 168.903 15.6551 168.285 16.0391C167.666 16.4231 167.079 16.9351 166.525 17.5751C165.991 18.2151 165.501 18.9618 165.053 19.8151C164.605 20.6684 164.253 21.5858 163.997 22.5671C165.703 21.7138 167.122 20.6684 168.253 19.4311C169.383 18.1724 169.991 16.8071 170.077 15.3351Z" fill="black"/>
</svg>
