<svg width="139" height="125" viewBox="0 0 139 125" fill="none" xmlns="http://www.w3.org/2000/svg">
<path d="M96.6278 2.28989L96.6039 0.29003L96.6278 2.28989ZM44.4804 43.1638L42.4843 43.0395L44.4804 43.1638ZM77.2303 89.9037L76.6829 87.9801L77.2303 89.9037ZM90.0228 68.4066L92.019 68.2831L90.0228 68.4066ZM79.2918 46.1481L77.9142 47.5981L79.2918 46.1481ZM19.0591 58.2437L17.3666 57.178L19.0591 58.2437ZM12.3414 96.5792L10.343 96.6606L12.3414 96.5792ZM17.816 124.84C18.8294 125.28 20.0071 124.814 20.4465 123.801L27.6067 107.286C28.046 106.273 27.5807 105.095 26.5673 104.656C25.5539 104.216 24.3761 104.682 23.9367 105.695L17.5722 120.375L2.89252 114.01C1.87909 113.571 0.70137 114.036 0.261986 115.05C-0.177398 116.063 0.287948 117.241 1.30137 117.68L17.816 124.84ZM136.843 22.8396C138.271 21.4393 138.271 21.4392 138.271 21.4391C138.271 21.4391 138.271 21.439 138.27 21.4389C138.27 21.4388 138.27 21.4386 138.27 21.4385C138.27 21.4381 138.269 21.4378 138.269 21.4373C138.268 21.4364 138.267 21.4352 138.265 21.4338C138.263 21.431 138.259 21.4272 138.254 21.4224C138.245 21.4128 138.231 21.3992 138.214 21.3819C138.18 21.3472 138.13 21.2972 138.065 21.2329C137.935 21.1043 137.745 20.9181 137.499 20.6817C137.007 20.209 136.289 19.5348 135.374 18.7174L132.709 21.7001C133.584 22.4826 134.267 23.1239 134.728 23.5666C134.959 23.788 135.133 23.9595 135.249 24.0742C135.307 24.1315 135.35 24.1746 135.378 24.2025C135.392 24.2165 135.402 24.2267 135.408 24.2329C135.411 24.2361 135.413 24.2383 135.414 24.2394C135.415 24.24 135.415 24.2404 135.415 24.2405C135.415 24.2405 135.415 24.2405 135.415 24.2404C135.415 24.2404 135.415 24.2403 135.415 24.2402C135.415 24.2402 135.415 24.2401 135.415 24.2401C135.415 24.2401 135.415 24.24 136.843 22.8396ZM129.309 13.7171C127.39 12.2566 125.219 10.7148 122.858 9.21745L120.716 12.5953C122.966 14.0226 125.044 15.4974 126.887 16.9002L129.309 13.7171ZM115.969 5.32527C113.611 4.16052 111.137 3.11566 108.591 2.28359L107.349 6.08569C109.685 6.84921 111.982 7.81689 114.198 8.91164L115.969 5.32527ZM100.701 0.508944C99.3433 0.351139 97.9754 0.273609 96.6039 0.29003L96.6518 4.28974C97.8408 4.2755 99.0381 4.34259 100.239 4.48219L100.701 0.508944ZM96.6039 0.29003C95.3395 0.305171 94.0798 0.345535 92.8269 0.411837L93.0383 4.40625C94.2354 4.34289 95.4406 4.30425 96.6518 4.28974L96.6039 0.29003ZM85.294 1.14308C82.757 1.50734 80.2659 1.9911 77.84 2.60145L78.816 6.48055C81.0989 5.90617 83.4535 5.44835 85.8625 5.10247L85.294 1.14308ZM70.5644 4.90145C68.147 5.83727 65.8238 6.92585 63.6197 8.17643L65.5935 11.6555C67.6152 10.5084 69.76 9.50212 72.0085 8.6317L70.5644 4.90145ZM57.2445 12.542C55.2469 14.1869 53.4056 16.0134 51.7489 18.0299L54.8396 20.5692C56.3248 18.7614 57.9808 17.1173 59.7872 15.6299L57.2445 12.542ZM47.4415 24.5049C46.2637 26.7309 45.2733 29.1203 44.4894 31.6771L48.3136 32.8497C49.0252 30.529 49.9198 28.3738 50.9771 26.3757L47.4415 24.5049ZM42.8581 39.2103C42.6909 40.455 42.5658 41.7313 42.4843 43.0395L46.4765 43.2882C46.5523 42.0724 46.6683 40.8909 46.8225 39.7429L42.8581 39.2103ZM42.4843 43.0395C42.3831 44.6626 42.3024 46.161 42.2466 47.5577L46.2435 47.7172C46.2976 46.3592 46.3766 44.8921 46.4765 43.2882L42.4843 43.0395ZM42.3958 56.7763C42.7187 59.9884 43.3918 62.8122 44.5196 65.9443L48.2831 64.5892C47.2546 61.733 46.6626 59.2297 46.3757 56.3761L42.3958 56.7763ZM48.1156 74.3412C48.7079 75.6008 49.3528 76.9469 50.0525 78.3983L53.6557 76.6612C52.9579 75.2138 52.3195 73.8813 51.7353 72.6391L48.1156 74.3412ZM50.0525 78.3983C50.4056 79.1307 51.2553 80.4269 52.4585 81.8986L55.5553 79.3668C54.4405 78.0033 53.8123 76.9861 53.6557 76.6612L50.0525 78.3983ZM58.2285 87.4898C60.2669 89.0391 62.6712 90.4704 65.388 91.4251L66.7142 87.6514C64.4745 86.8643 62.4346 85.6624 60.649 84.3052L58.2285 87.4898ZM73.6503 92.5636C74.9943 92.4656 76.3721 92.2274 77.7777 91.8274L76.6829 87.9801C75.5387 88.3057 74.4302 88.4961 73.3593 88.5742L73.6503 92.5636ZM77.7777 91.8274C79.0558 91.4637 80.2343 91.0991 81.3167 90.7212L79.9981 86.9448C79.01 87.2898 77.9099 87.6309 76.6829 87.9801L77.7777 91.8274ZM88.2931 86.9534C90.4206 84.9971 91.4909 82.5473 91.9531 79.4436L87.9967 78.8544C87.6305 81.3141 86.8684 82.8295 85.5857 84.0089L88.2931 86.9534ZM92.2038 71.9212C92.1626 70.785 92.0989 69.5739 92.019 68.2831L88.0267 68.5301C88.1052 69.7995 88.1668 70.9746 88.2064 72.066L92.2038 71.9212ZM92.019 68.2831C91.9512 67.1874 91.7819 66.0441 91.5332 64.8819L87.6217 65.7189C87.8369 66.7244 87.9733 67.6679 88.0267 68.5301L92.019 68.2831ZM89.5349 58.5586C88.7166 56.5513 87.7382 54.5528 86.6624 52.6742L83.1913 54.6621C84.1812 56.3906 85.0812 58.2296 85.8309 60.0687L89.5349 58.5586ZM82.9636 47.2066C82.2192 46.287 81.4504 45.4403 80.6693 44.6982L77.9142 47.5981C78.5476 48.1998 79.1992 48.9137 79.8545 49.7232L82.9636 47.2066ZM80.6693 44.6982C79.5046 43.5916 78.3263 42.5718 77.1364 41.6364L74.6642 44.7809C75.7523 45.6364 76.8364 46.5741 77.9142 47.5981L80.6693 44.6982ZM69.1676 36.6747C66.173 35.2695 63.1481 34.3379 60.1287 33.8383L59.4757 37.7847C62.1258 38.2232 64.7993 39.0434 67.4684 40.2959L69.1676 36.6747ZM50.6356 33.6508C47.5041 34.0368 44.4434 34.8527 41.4951 36.032L42.9806 39.7459C45.6332 38.6849 48.3598 37.9616 51.125 37.6207L50.6356 33.6508ZM33.2347 40.452C30.6997 42.17 28.2934 44.1562 26.047 46.3597L28.8481 49.2153C30.9337 47.1694 33.155 45.3381 35.4788 43.7632L33.2347 40.452ZM19.976 53.3571C19.0625 54.5926 18.1915 55.868 17.3666 57.178L20.7515 59.3093C21.5237 58.083 22.3384 56.89 23.1923 55.7353L19.976 53.3571ZM17.3666 57.178C16.4221 58.678 15.5942 60.1941 14.8697 61.7239L18.4849 63.4358C19.142 62.0482 19.8933 60.6723 20.7515 59.3093L17.3666 57.178ZM11.558 71.5036C10.8161 74.8635 10.4217 78.2479 10.2357 81.6288L14.2297 81.8485C14.4068 78.6287 14.7793 75.4665 15.4639 72.3661L11.558 71.5036ZM10.1647 91.6894C10.2111 93.3495 10.2758 95.0094 10.343 96.6606L14.3397 96.4979C14.2726 94.8491 14.2088 93.2106 14.1631 91.5776L10.1647 91.6894ZM10.343 96.6606C10.3925 97.8756 10.4615 99.035 10.5513 100.151L14.5384 99.8304C14.4532 98.7717 14.3872 97.6652 14.3397 96.4979L10.343 96.6606ZM11.4789 107.133C11.9251 109.463 12.4983 111.685 13.2069 113.968L17.0271 112.782C16.3566 110.622 15.822 108.545 15.4075 106.381L11.4789 107.133ZM15.5042 120.53C15.896 121.561 16.3117 122.627 16.7515 123.74L20.4716 122.27C20.036 121.168 19.627 120.118 19.2431 119.109L15.5042 120.53Z" fill="#E99F9F"/>
</svg>
