<svg width="22" height="24" viewBox="0 0 22 24" fill="none" xmlns="http://www.w3.org/2000/svg">
<path d="M22 10.2608C22 11.5651 20.5507 9.60861 18.8116 9.82601C17.9484 9.59155 16.4928 10.2608 15.913 10.6956C14.7536 10.0434 13.5517 9.60861 11.8551 9.60861C10.1585 9.60861 8.95652 10.2608 8.08696 10.6956C6.92754 10.0434 5.58896 9.64221 4.6087 9.82601C2.28986 10.2608 2 11.5964 2 10.0434C2 6.80172 6.54204 4.39122 12.1449 4.39122C17.7478 4.39122 22 7.01912 22 10.2608Z" fill="white"/>
<path d="M13.3555 2.00002C13.3555 1.17159 12.6839 0.50002 11.8555 0.50002C11.027 0.50002 10.3555 1.17159 10.3555 2.00002H13.3555ZM13.3555 4.17393V2.00002H10.3555V4.17393H13.3555Z" fill="white"/>
<path d="M10.3555 21.5652C10.3555 22.3936 11.027 23.0652 11.8555 23.0652C12.6839 23.0652 13.3555 22.3936 13.3555 21.5652H10.3555ZM10.3555 20.2608V21.5652H13.3555V20.2608H10.3555Z" fill="white"/>
<path d="M11.8555 18.5218V9.82616" stroke="white" stroke-width="3"/>
<path d="M4.95179 19.3913V20.8913H4.07693L3.64619 20.1299L4.95179 19.3913ZM0.694939 14.9125C0.287066 14.1914 0.540956 13.2762 1.26202 12.8684C1.98308 12.4605 2.89826 12.7144 3.30614 13.4354L0.694939 14.9125ZM18.2324 20.8913H4.95179V17.8913H18.2324V20.8913ZM3.64619 20.1299L0.694939 14.9125L3.30614 13.4354L6.25739 18.6528L3.64619 20.1299Z" fill="white"/>
<path d="M17.7403 21.168C18.1998 21.8573 18.0135 22.7886 17.3242 23.2481C16.6349 23.7076 15.7036 23.5214 15.2441 22.8321L17.7403 21.168ZM16.0011 18.5593L17.7403 21.168L15.2441 22.8321L13.505 20.2234L16.0011 18.5593Z" fill="white"/>
<path d="M2.94959 21.3908C2.61314 22.1478 2.95408 23.0343 3.71111 23.3707C4.46813 23.7072 5.35457 23.3663 5.69103 22.6092L2.94959 21.3908ZM4.10902 18.7821L2.94959 21.3908L5.69103 22.6092L6.85045 20.0005L4.10902 18.7821Z" fill="white"/>
<path d="M9.53711 18.9565L8.48309 17.2174H3.74001" stroke="white" stroke-width="2"/>
</svg>
