<svg width="20" height="20" viewBox="0 0 20 20" fill="none" xmlns="http://www.w3.org/2000/svg">
<path d="M19.6789 9.29041L17.3333 7.00174V3.64369C17.3333 3.37862 17.2282 3.12442 17.041 2.93699C16.8538 2.74956 16.5999 2.64426 16.3352 2.64426H13.0314L10.6958 0.295627C10.603 0.201953 10.4926 0.127602 10.3709 0.0768624C10.2493 0.0261231 10.1188 0 9.98708 0C9.85532 0 9.72486 0.0261231 9.60323 0.0768624C9.4816 0.127602 9.3712 0.201953 9.27841 0.295627L6.99269 2.64426H3.63898C3.37426 2.64426 3.12038 2.74956 2.9332 2.93699C2.74601 3.12442 2.64085 3.37862 2.64085 3.64369V7.00174L0.295245 9.29041C0.201692 9.38332 0.127437 9.49386 0.0767631 9.61565C0.0260894 9.73743 0 9.86806 0 10C0 10.1319 0.0260894 10.2626 0.0767631 10.3844C0.127437 10.5061 0.201692 10.6167 0.295245 10.7096L2.64085 13.0482V16.3563C2.64085 16.6214 2.74601 16.8756 2.9332 17.063C3.12038 17.2504 3.37426 17.3557 3.63898 17.3557H6.99269L9.32832 19.7044C9.42111 19.798 9.5315 19.8724 9.65313 19.9231C9.77477 19.9739 9.90523 20 10.037 20C10.1688 20 10.2992 19.9739 10.4208 19.9231C10.5425 19.8724 10.6529 19.798 10.7457 19.7044L13.0813 17.3557H16.3851C16.6498 17.3557 16.9037 17.2504 17.0909 17.063C17.2781 16.8756 17.3832 16.6214 17.3832 16.3563V13.0482L19.7288 10.7096C19.8192 10.6134 19.8896 10.5003 19.9361 10.3767C19.9825 10.2531 20.004 10.1215 19.9994 9.98958C19.9947 9.85762 19.964 9.72789 19.909 9.60789C19.854 9.48788 19.7758 9.37998 19.6789 9.29041ZM15.6365 11.9289C15.5422 12.0214 15.4672 12.1318 15.4158 12.2536C15.3644 12.3754 15.3376 12.5062 15.3371 12.6385V15.3569H12.6221C12.4901 15.3574 12.3594 15.3842 12.2378 15.4357C12.1162 15.4872 12.0059 15.5623 11.9135 15.6567L9.98708 17.5856L8.06069 15.6567C7.96825 15.5623 7.85801 15.4872 7.73637 15.4357C7.61472 15.3842 7.48408 15.3574 7.35202 15.3569H4.63711V12.6385C4.63656 12.5062 4.60981 12.3754 4.55841 12.2536C4.50701 12.1318 4.43198 12.0214 4.33767 11.9289L2.41128 10L4.33767 8.07112C4.43198 7.97856 4.50701 7.86818 4.55841 7.74637C4.60981 7.62457 4.63656 7.49376 4.63711 7.36153V4.64311H7.35202C7.48408 4.64256 7.61472 4.61577 7.73637 4.56431C7.85801 4.51284 7.96825 4.43771 8.06069 4.34328L9.98708 2.4144L11.9135 4.34328C12.0059 4.43771 12.1162 4.51284 12.2378 4.56431C12.3594 4.61577 12.4901 4.64256 12.6221 4.64311H15.3371V7.36153C15.3376 7.49376 15.3644 7.62457 15.4158 7.74637C15.4672 7.86818 15.5422 7.97856 15.6365 8.07112L17.5629 10L15.6365 11.9289Z" fill="white"/>
<path d="M10.5545 12.639V12.1788C10.5545 11.8407 10.6255 11.5297 10.7675 11.2456C10.9124 10.9615 11.1227 10.7328 11.3982 10.5595C11.6738 10.3862 12.0076 10.2995 12.3997 10.2995C12.8031 10.2995 13.1411 10.3862 13.4139 10.5595C13.6866 10.7299 13.8925 10.9572 14.0318 11.2413C14.1738 11.5254 14.2448 11.8379 14.2448 12.1788V12.639C14.2448 12.9771 14.1738 13.2882 14.0318 13.5723C13.8897 13.8564 13.6809 14.085 13.4053 14.2583C13.1326 14.4316 12.7974 14.5183 12.3997 14.5183C12.0019 14.5183 11.6653 14.4316 11.3897 14.2583C11.1141 14.085 10.9053 13.8564 10.7633 13.5723C10.6241 13.2882 10.5545 12.9771 10.5545 12.639ZM11.6667 12.1788V12.639C11.6667 12.8635 11.7207 13.0694 11.8286 13.2569C11.9366 13.4444 12.1269 13.5382 12.3997 13.5382C12.6752 13.5382 12.8641 13.4458 12.9664 13.2612C13.0715 13.0737 13.1241 12.8663 13.1241 12.639V12.1788C13.1241 11.9515 13.0744 11.7441 12.9749 11.5566C12.8755 11.3663 12.6837 11.2711 12.3997 11.2711C12.1326 11.2711 11.9437 11.3663 11.8329 11.5566C11.7221 11.7441 11.6667 11.9515 11.6667 12.1788ZM6.1184 7.64471V7.18448C6.1184 6.84357 6.19084 6.53107 6.33573 6.24698C6.48062 5.96289 6.69084 5.73562 6.96641 5.56516C7.24198 5.39187 7.57579 5.30522 7.96783 5.30522C8.3684 5.30522 8.70505 5.39187 8.97778 5.56516C9.25334 5.73562 9.46073 5.96289 9.59993 6.24698C9.73914 6.53107 9.80874 6.84357 9.80874 7.18448V7.64471C9.80874 7.98562 9.73772 8.29812 9.59567 8.58221C9.45647 8.86346 9.24908 9.08931 8.97351 9.25977C8.69795 9.43022 8.36272 9.51545 7.96783 9.51545C7.56726 9.51545 7.2292 9.43022 6.95363 9.25977C6.6809 9.08931 6.47351 8.86204 6.33147 8.57795C6.18942 8.29386 6.1184 7.98278 6.1184 7.64471ZM7.23914 7.18448V7.64471C7.23914 7.87198 7.2917 8.07937 7.39681 8.26687C7.50476 8.45153 7.69511 8.54386 7.96783 8.54386C8.24056 8.54386 8.42806 8.45153 8.53033 8.26687C8.63545 8.07937 8.688 7.87198 8.688 7.64471V7.18448C8.688 6.95721 8.63829 6.74982 8.53886 6.56232C8.43942 6.37198 8.24908 6.27681 7.96783 6.27681C7.69795 6.27681 7.50903 6.37198 7.40107 6.56232C7.29312 6.75266 7.23914 6.96005 7.23914 7.18448ZM6.6042 14.2754L12.6042 5.54812H13.6695L7.66954 14.2754H6.6042Z" fill="white"/>
</svg>
