<svg width="35" height="30" viewBox="0 0 35 30" fill="none" xmlns="http://www.w3.org/2000/svg">
<path d="M30.6619 16.5478C30.2755 16.5478 29.8715 16.4421 29.4851 16.3666C28.7027 16.2184 27.9337 16.0216 27.1844 15.7778C26.3696 15.523 25.474 15.5362 24.6699 15.8149C23.8658 16.0937 23.21 16.6182 22.8287 17.2876L22.4424 17.967C20.7317 17.1489 19.1598 16.1329 17.7706 14.9474C16.3915 13.7532 15.2096 12.4019 14.258 10.9314L14.9956 10.5086C15.7743 10.1809 16.3845 9.61713 16.7087 8.92589C17.033 8.23465 17.0483 7.46475 16.7519 6.76434C16.4731 6.11878 16.2442 5.45806 16.067 4.78651C15.9792 4.45436 15.9089 4.10711 15.8562 3.75986C15.6429 2.69639 14.995 1.73333 14.029 1.0441C13.063 0.354882 11.8425 -0.0152094 10.5873 0.000479061H5.31839C4.56147 -0.00563036 3.81191 0.128529 3.12074 0.393825C2.42956 0.659121 1.81299 1.04932 1.31301 1.53787C0.813025 2.02642 0.441363 2.60184 0.223323 3.22496C0.0052842 3.84808 -0.0540125 4.50427 0.0494702 5.14886C0.985121 11.4739 4.34544 17.3508 9.59965 21.8511C14.8539 26.3514 21.7024 29.2187 29.0636 30H29.731C31.0262 30.0016 32.2766 29.5932 33.2436 28.8526C33.7993 28.4254 34.2431 27.9017 34.5459 27.3161C34.8486 26.7305 35.0034 26.0963 34.9999 25.4555V20.9262C34.9784 19.8774 34.5342 18.8676 33.743 18.0691C32.9519 17.2706 31.8629 16.7329 30.6619 16.5478ZM31.54 25.6065C31.5397 25.8209 31.4863 26.0327 31.3833 26.228C31.2804 26.4232 31.1302 26.5974 30.9429 26.7388C30.7472 26.8853 30.5178 26.9946 30.2696 27.0597C30.0215 27.1247 29.7601 27.144 29.5027 27.1163C22.9252 26.3913 16.8156 23.8046 12.1376 19.7641C7.45967 15.7236 4.47959 10.4593 3.66746 4.80161C3.63951 4.58045 3.664 4.35672 3.73947 4.14393C3.81494 3.93114 3.93981 3.73372 4.10654 3.56358C4.27112 3.40254 4.47371 3.27346 4.70083 3.18495C4.92795 3.09644 5.1744 3.05053 5.42376 3.05025H10.6927C11.1011 3.04244 11.4999 3.15727 11.8205 3.37497C12.141 3.59266 12.3633 3.89962 12.449 4.24299C12.5192 4.65566 12.6071 5.06331 12.7124 5.46592C12.9153 6.26179 13.1853 7.04392 13.5203 7.80609L11.0615 8.78745C10.8513 8.87037 10.6622 8.98817 10.505 9.1341C10.3479 9.28001 10.2259 9.45118 10.1459 9.63776C10.0659 9.82434 10.0296 10.0227 10.0391 10.2213C10.0485 10.42 10.1035 10.6151 10.2009 10.7955C12.7286 15.4498 17.0808 19.1911 22.4951 21.364C22.9226 21.515 23.4023 21.515 23.8298 21.364C24.0489 21.2967 24.2502 21.1926 24.422 21.0578C24.5939 20.923 24.7329 20.7602 24.8309 20.5789L25.9198 18.4652C26.8278 18.7443 27.7545 18.9762 28.6948 19.1597C29.1632 19.2503 29.6374 19.3258 30.1174 19.3862C30.5168 19.4598 30.8739 19.6509 31.1272 19.9265C31.3804 20.202 31.514 20.5449 31.5049 20.896L31.54 25.6065Z" fill="black"/>
</svg>
