<svg width="20" height="20" viewBox="0 0 20 20" fill="none" xmlns="http://www.w3.org/2000/svg">
<path d="M19.32 2.27671L13.32 0.0558532H13.25C13.2034 0.0506582 13.1565 0.0506582 13.11 0.0558532H12.88H12.75H12.68L7 2.22118L1.32 0.0558532C1.16962 0.000788865 1.00961 -0.0138312 0.853138 0.013196C0.69667 0.0402231 0.548219 0.108125 0.420003 0.211313C0.290762 0.31349 0.185268 0.448348 0.112238 0.604745C0.039208 0.761141 0.000736953 0.934589 3.33353e-06 1.11076V16.6567C-0.000537828 16.8895 0.0648223 17.1166 0.186845 17.3059C0.308868 17.4952 0.481382 17.6371 0.680003 17.7116L6.68 19.9325C6.88145 20.0054 7.09855 20.0054 7.3 19.9325L13 17.8227L18.68 19.988C18.7862 20.004 18.8938 20.004 19 19.988C19.2091 19.9913 19.4132 19.917 19.58 19.777C19.7092 19.6748 19.8147 19.54 19.8878 19.3836C19.9608 19.2272 19.9993 19.0537 20 18.8776V3.33161C20.0005 3.09882 19.9352 2.87172 19.8132 2.68242C19.6911 2.49312 19.5186 2.3512 19.32 2.27671ZM6 17.3341L2 15.8572V2.65425L6 4.13112V17.3341ZM12 15.8572L8 17.3341V4.13112L12 2.65425V15.8572ZM18 17.3341L14 15.8572V2.65425L18 4.13112V17.3341Z" fill="white"/>
</svg>
