<svg width="27" height="22" viewBox="0 0 27 22" fill="none" xmlns="http://www.w3.org/2000/svg">
<rect x="1" y="4.33325" width="25" height="16.6667" rx="2" stroke="#222222"/>
<path d="M1 8.33325C1 6.44763 1 5.50482 1.58579 4.91904C2.17157 4.33325 3.11438 4.33325 5 4.33325H22C23.8856 4.33325 24.8284 4.33325 25.4142 4.91904C26 5.50482 26 6.44763 26 8.33325V8.7777H1V8.33325Z" fill="#222222"/>
<path d="M6.55566 1L6.55566 4.33333" stroke="#222222" stroke-linecap="round"/>
<path d="M20.4443 1L20.4443 4.33333" stroke="#222222" stroke-linecap="round"/>
<rect x="6.55566" y="11" width="5.55556" height="2.22222" rx="0.5" fill="#222222"/>
<rect x="6.55566" y="15.4443" width="5.55556" height="2.22222" rx="0.5" fill="#222222"/>
<rect x="14.8887" y="11" width="5.55556" height="2.22222" rx="0.5" fill="#222222"/>
<rect x="14.8887" y="15.4443" width="5.55556" height="2.22222" rx="0.5" fill="#222222"/>
</svg>
